<svg width="149" height="71" viewBox="0 0 149 71" fill="none" xmlns="http://www.w3.org/2000/svg">
<path d="M147.635 16.5143C148.427 15.723 148.427 14.44 147.635 13.6487L134.74 0.753603C133.949 -0.0377029 132.666 -0.0377029 131.875 0.753603C131.083 1.54491 131.083 2.82787 131.875 3.61917L143.337 15.0815L131.875 26.5438C131.083 27.3351 131.083 28.618 131.875 29.4093C132.666 30.2006 133.949 30.2006 134.74 29.4093L147.635 16.5143ZM48.9417 21.8357L50.3745 23.2685L48.9417 21.8357ZM86.7653 17.1077C87.8844 17.1077 88.7916 16.2005 88.7916 15.0815C88.7916 13.9624 87.8844 13.0552 86.7653 13.0552L86.7653 17.1077ZM117.159 13.0552C116.04 13.0552 115.133 13.9624 115.133 15.0815C115.133 16.2005 116.04 17.1077 117.159 17.1077L117.159 13.0552ZM55.4981 15.2793L54.0653 13.8465L55.4981 15.2793ZM3.0949 70.548L16.6033 57.0396L13.7378 54.174L0.229323 67.6824L3.0949 70.548ZM16.6033 57.0396C16.6033 57.0396 17.6325 56.0104 18.9913 54.6516C19.7299 53.9131 20.3735 53.2695 21.1894 52.4535C21.207 52.4359 21.2428 52.4001 21.2604 52.3825C21.2876 52.3553 21.3041 52.3389 21.3313 52.3117C21.3515 52.2914 21.3465 52.2964 21.3667 52.2762C21.4147 52.2282 21.3541 52.2888 21.4021 52.2408C21.4413 52.2016 21.4337 52.2093 21.4729 52.1701C21.6074 52.0356 21.6209 52.022 21.7548 51.8881C22.0117 51.6312 22.0578 51.5851 22.31 51.3329C22.3788 51.2641 22.5143 51.1287 22.5813 51.0616C22.7112 50.9317 22.7192 50.9237 22.847 50.7959C22.9245 50.7184 22.9006 50.7423 22.9775 50.6655C23.0206 50.6223 23.0635 50.5794 23.1061 50.5368C23.1114 50.5315 23.1168 50.5262 23.1221 50.5209C23.1274 50.5155 23.1327 50.5102 23.138 50.5049C23.1802 50.4628 23.1276 50.5153 23.1697 50.4732C23.1908 50.4521 23.2119 50.431 23.2329 50.4101C23.2658 50.3771 23.2313 50.4116 23.2642 50.3787C23.2694 50.3735 23.2747 50.3683 23.2799 50.3631C23.2851 50.3578 23.2903 50.3526 23.2955 50.3474C23.3059 50.3371 23.3162 50.3267 23.3266 50.3163C23.3318 50.3112 23.3369 50.306 23.3421 50.3008C23.3473 50.2957 23.3524 50.2905 23.3576 50.2854L20.492 47.4198C17.8543 50.0575 13.7378 54.174 13.7378 54.174L16.6033 57.0396ZM50.3745 23.2685L56.9308 16.7121L54.0653 13.8465L47.5089 20.4029L50.3745 23.2685ZM23.3576 50.2854L50.3745 23.2685L47.5089 20.4029L20.492 47.4198L23.3576 50.2854ZM55.9757 17.1077L78.3225 17.1077L78.3225 13.0552L55.9757 13.0552L55.9757 17.1077ZM78.3225 17.1077L86.7653 17.1077L86.7653 13.0552L78.3225 13.0552L78.3225 17.1077ZM123.576 17.1077L146.202 17.1077L146.202 13.0552L123.576 13.0552L123.576 17.1077ZM117.159 17.1077C117.164 17.1077 117.169 17.1077 117.174 17.1077C117.179 17.1077 117.184 17.1077 117.189 17.1077C117.194 17.1077 117.199 17.1077 117.203 17.1077C117.208 17.1077 117.213 17.1077 117.218 17.1077C117.223 17.1077 117.228 17.1077 117.233 17.1077C117.238 17.1077 117.243 17.1077 117.248 17.1077C117.253 17.1077 117.258 17.1077 117.263 17.1077C117.268 17.1077 117.273 17.1077 117.278 17.1077C117.283 17.1077 117.288 17.1077 117.293 17.1077C117.298 17.1077 117.303 17.1077 117.308 17.1077C117.313 17.1077 117.318 17.1077 117.323 17.1077C117.328 17.1077 117.333 17.1077 117.338 17.1077C117.343 17.1077 117.348 17.1077 117.353 17.1077C117.358 17.1077 117.363 17.1077 117.368 17.1077C117.373 17.1077 117.378 17.1077 117.383 17.1077C117.388 17.1077 117.393 17.1077 117.398 17.1077C117.403 17.1077 117.408 17.1077 117.413 17.1077C117.418 17.1077 117.423 17.1077 117.429 17.1077C117.434 17.1077 117.439 17.1077 117.444 17.1077C117.449 17.1077 117.454 17.1077 117.459 17.1077C117.464 17.1077 117.469 17.1077 117.474 17.1077C117.479 17.1077 117.485 17.1077 117.49 17.1077C117.495 17.1077 117.5 17.1077 117.505 17.1077C117.51 17.1077 117.515 17.1077 117.52 17.1077C117.526 17.1077 117.531 17.1077 117.536 17.1077C117.541 17.1077 117.546 17.1077 117.551 17.1077C117.556 17.1077 117.562 17.1077 117.567 17.1077C117.572 17.1077 117.577 17.1077 117.582 17.1077C117.587 17.1077 117.592 17.1077 117.598 17.1077C117.603 17.1077 117.608 17.1077 117.613 17.1077C117.618 17.1077 117.624 17.1077 117.629 17.1077C117.634 17.1077 117.639 17.1077 117.644 17.1077C117.65 17.1077 117.655 17.1077 117.66 17.1077C117.665 17.1077 117.67 17.1077 117.676 17.1077C117.681 17.1077 117.686 17.1077 117.691 17.1077C117.696 17.1077 117.702 17.1077 117.707 17.1077C117.712 17.1077 117.717 17.1077 117.723 17.1077C117.728 17.1077 117.733 17.1077 117.738 17.1077C117.744 17.1077 117.749 17.1077 117.754 17.1077C117.759 17.1077 117.765 17.1077 117.77 17.1077C117.775 17.1077 117.78 17.1077 117.786 17.1077C117.791 17.1077 117.796 17.1077 117.801 17.1077C117.807 17.1077 117.812 17.1077 117.817 17.1077C117.823 17.1077 117.828 17.1077 117.833 17.1077C117.838 17.1077 117.844 17.1077 117.849 17.1077C117.854 17.1077 117.86 17.1077 117.865 17.1077C117.87 17.1077 117.875 17.1077 117.881 17.1077C117.886 17.1077 117.891 17.1077 117.897 17.1077C117.902 17.1077 117.907 17.1077 117.913 17.1077C117.918 17.1077 117.923 17.1077 117.929 17.1077C117.934 17.1077 117.939 17.1077 117.945 17.1077C117.95 17.1077 117.955 17.1077 117.961 17.1077C117.966 17.1077 117.971 17.1077 117.977 17.1077C117.982 17.1077 117.987 17.1077 117.993 17.1077C117.998 17.1077 118.004 17.1077 118.009 17.1077C118.014 17.1077 118.02 17.1077 118.025 17.1077C118.03 17.1077 118.036 17.1077 118.041 17.1077C118.046 17.1077 118.052 17.1077 118.057 17.1077C118.063 17.1077 118.068 17.1077 118.073 17.1077C118.079 17.1077 118.084 17.1077 118.09 17.1077C118.095 17.1077 118.1 17.1077 118.106 17.1077C118.111 17.1077 118.117 17.1077 118.122 17.1077C118.127 17.1077 118.133 17.1077 118.138 17.1077C118.144 17.1077 118.149 17.1077 118.154 17.1077C118.16 17.1077 118.165 17.1077 118.171 17.1077C118.176 17.1077 118.182 17.1077 118.187 17.1077C118.192 17.1077 118.198 17.1077 118.203 17.1077C118.209 17.1077 118.214 17.1077 118.22 17.1077C118.225 17.1077 118.23 17.1077 118.236 17.1077C118.241 17.1077 118.247 17.1077 118.252 17.1077C118.258 17.1077 118.263 17.1077 118.269 17.1077C118.274 17.1077 118.28 17.1077 118.285 17.1077C118.29 17.1077 118.296 17.1077 118.301 17.1077C118.307 17.1077 118.312 17.1077 118.318 17.1077C118.323 17.1077 118.329 17.1077 118.334 17.1077C118.34 17.1077 118.345 17.1077 118.351 17.1077C118.356 17.1077 118.362 17.1077 118.367 17.1077C118.373 17.1077 118.378 17.1077 118.384 17.1077C118.389 17.1077 118.395 17.1077 118.4 17.1077C118.406 17.1077 118.411 17.1077 118.417 17.1077C118.422 17.1077 118.428 17.1077 118.433 17.1077C118.439 17.1077 118.444 17.1077 118.45 17.1077C118.455 17.1077 118.461 17.1077 118.466 17.1077C118.472 17.1077 118.477 17.1077 118.483 17.1077C118.488 17.1077 118.494 17.1077 118.499 17.1077C118.505 17.1077 118.51 17.1077 118.516 17.1077C118.521 17.1077 118.527 17.1077 118.532 17.1077C118.538 17.1077 118.543 17.1077 118.549 17.1077C118.554 17.1077 118.56 17.1077 118.565 17.1077C118.571 17.1077 118.577 17.1077 118.582 17.1077C118.588 17.1077 118.593 17.1077 118.599 17.1077C118.604 17.1077 118.61 17.1077 118.615 17.1077C118.621 17.1077 118.626 17.1077 118.632 17.1077C118.638 17.1077 118.643 17.1077 118.649 17.1077C118.654 17.1077 118.66 17.1077 118.665 17.1077C118.671 17.1077 118.676 17.1077 118.682 17.1077C118.688 17.1077 118.693 17.1077 118.699 17.1077C118.704 17.1077 118.71 17.1077 118.715 17.1077C118.721 17.1077 118.726 17.1077 118.732 17.1077C118.738 17.1077 118.743 17.1077 118.749 17.1077C118.754 17.1077 118.76 17.1077 118.765 17.1077C118.771 17.1077 118.777 17.1077 118.782 17.1077C118.788 17.1077 118.793 17.1077 118.799 17.1077C118.804 17.1077 118.81 17.1077 118.816 17.1077C118.821 17.1077 118.827 17.1077 118.832 17.1077C118.838 17.1077 118.844 17.1077 118.849 17.1077C118.855 17.1077 118.86 17.1077 118.866 17.1077C118.871 17.1077 118.877 17.1077 118.883 17.1077C118.888 17.1077 118.894 17.1077 118.899 17.1077C118.905 17.1077 118.911 17.1077 118.916 17.1077C118.922 17.1077 118.927 17.1077 118.933 17.1077C118.939 17.1077 118.944 17.1077 118.95 17.1077C118.955 17.1077 118.961 17.1077 118.967 17.1077C118.972 17.1077 118.978 17.1077 118.983 17.1077C118.989 17.1077 118.995 17.1077 119 17.1077C119.006 17.1077 119.011 17.1077 119.017 17.1077C119.023 17.1077 119.028 17.1077 119.034 17.1077C119.039 17.1077 119.045 17.1077 119.051 17.1077C119.056 17.1077 119.062 17.1077 119.067 17.1077C119.073 17.1077 119.079 17.1077 119.084 17.1077C119.09 17.1077 119.096 17.1077 119.101 17.1077C119.107 17.1077 119.112 17.1077 119.118 17.1077C119.124 17.1077 119.129 17.1077 119.135 17.1077C119.14 17.1077 119.146 17.1077 119.152 17.1077C119.157 17.1077 119.163 17.1077 119.168 17.1077C119.174 17.1077 119.18 17.1077 119.185 17.1077C119.191 17.1077 119.197 17.1077 119.202 17.1077C119.208 17.1077 119.213 17.1077 119.219 17.1077C119.225 17.1077 119.23 17.1077 119.236 17.1077C119.241 17.1077 119.247 17.1077 119.253 17.1077C119.258 17.1077 119.264 17.1077 119.27 17.1077C119.275 17.1077 119.281 17.1077 119.286 17.1077C119.292 17.1077 119.298 17.1077 119.303 17.1077C119.309 17.1077 119.315 17.1077 119.32 17.1077C119.326 17.1077 119.331 17.1077 119.337 17.1077C119.343 17.1077 119.348 17.1077 119.354 17.1077C119.359 17.1077 119.365 17.1077 119.371 17.1077C119.376 17.1077 119.382 17.1077 119.388 17.1077C119.393 17.1077 119.399 17.1077 119.404 17.1077C119.41 17.1077 119.416 17.1077 119.421 17.1077C119.427 17.1077 119.433 17.1077 119.438 17.1077C119.444 17.1077 119.449 17.1077 119.455 17.1077C119.461 17.1077 119.466 17.1077 119.472 17.1077C119.477 17.1077 119.483 17.1077 119.489 17.1077C119.494 17.1077 119.5 17.1077 119.506 17.1077C119.511 17.1077 119.517 17.1077 119.522 17.1077C119.528 17.1077 119.534 17.1077 119.539 17.1077C119.545 17.1077 119.55 17.1077 119.556 17.1077C119.562 17.1077 119.567 17.1077 119.573 17.1077C119.579 17.1077 119.584 17.1077 119.59 17.1077C119.595 17.1077 119.601 17.1077 119.607 17.1077C119.612 17.1077 119.618 17.1077 119.623 17.1077C119.629 17.1077 119.635 17.1077 119.64 17.1077C119.646 17.1077 119.651 17.1077 119.657 17.1077C119.663 17.1077 119.668 17.1077 119.674 17.1077C119.679 17.1077 119.685 17.1077 119.691 17.1077C119.696 17.1077 119.702 17.1077 119.707 17.1077C119.713 17.1077 119.719 17.1077 119.724 17.1077C119.73 17.1077 119.735 17.1077 119.741 17.1077C119.747 17.1077 119.752 17.1077 119.758 17.1077C119.763 17.1077 119.769 17.1077 119.775 17.1077C119.78 17.1077 119.786 17.1077 119.791 17.1077C119.797 17.1077 119.803 17.1077 119.808 17.1077C119.814 17.1077 119.819 17.1077 119.825 17.1077C119.831 17.1077 119.836 17.1077 119.842 17.1077C119.847 17.1077 119.853 17.1077 119.858 17.1077C119.864 17.1077 119.87 17.1077 119.875 17.1077C119.881 17.1077 119.886 17.1077 119.892 17.1077C119.898 17.1077 119.903 17.1077 119.909 17.1077C119.914 17.1077 119.92 17.1077 119.925 17.1077C119.931 17.1077 119.937 17.1077 119.942 17.1077C119.948 17.1077 119.953 17.1077 119.959 17.1077C119.964 17.1077 119.97 17.1077 119.976 17.1077C119.981 17.1077 119.987 17.1077 119.992 17.1077C119.998 17.1077 120.003 17.1077 120.009 17.1077C120.014 17.1077 120.02 17.1077 120.026 17.1077C120.031 17.1077 120.037 17.1077 120.042 17.1077C120.048 17.1077 120.053 17.1077 120.059 17.1077C120.064 17.1077 120.07 17.1077 120.075 17.1077C120.081 17.1077 120.087 17.1077 120.092 17.1077C120.098 17.1077 120.103 17.1077 120.109 17.1077C120.114 17.1077 120.12 17.1077 120.125 17.1077C120.131 17.1077 120.136 17.1077 120.142 17.1077C120.147 17.1077 120.153 17.1077 120.158 17.1077C120.164 17.1077 120.17 17.1077 120.175 17.1077C120.181 17.1077 120.186 17.1077 120.192 17.1077C120.197 17.1077 120.203 17.1077 120.208 17.1077C120.214 17.1077 120.219 17.1077 120.225 17.1077C120.23 17.1077 120.236 17.1077 120.241 17.1077C120.247 17.1077 120.252 17.1077 120.258 17.1077C120.263 17.1077 120.269 17.1077 120.274 17.1077C120.28 17.1077 120.285 17.1077 120.291 17.1077C120.296 17.1077 120.302 17.1077 120.307 17.1077C120.313 17.1077 120.318 17.1077 120.324 17.1077C120.329 17.1077 120.335 17.1077 120.34 17.1077C120.346 17.1077 120.351 17.1077 120.357 17.1077C120.362 17.1077 120.367 17.1077 120.373 17.1077C120.378 17.1077 120.384 17.1077 120.389 17.1077C120.395 17.1077 120.4 17.1077 120.406 17.1077C120.411 17.1077 120.417 17.1077 120.422 17.1077C120.428 17.1077 120.433 17.1077 120.438 17.1077C120.444 17.1077 120.449 17.1077 120.455 17.1077C120.46 17.1077 120.466 17.1077 120.471 17.1077C120.477 17.1077 120.482 17.1077 120.487 17.1077C120.493 17.1077 120.498 17.1077 120.504 17.1077C120.509 17.1077 120.515 17.1077 120.52 17.1077C120.525 17.1077 120.531 17.1077 120.536 17.1077C120.542 17.1077 120.547 17.1077 120.552 17.1077C120.558 17.1077 120.563 17.1077 120.569 17.1077C120.574 17.1077 120.579 17.1077 120.585 17.1077C120.59 17.1077 120.596 17.1077 120.601 17.1077C120.606 17.1077 120.612 17.1077 120.617 17.1077C120.623 17.1077 120.628 17.1077 120.633 17.1077C120.639 17.1077 120.644 17.1077 120.65 17.1077C120.655 17.1077 120.66 17.1077 120.666 17.1077C120.671 17.1077 120.676 17.1077 120.682 17.1077C120.687 17.1077 120.692 17.1077 120.698 17.1077C120.703 17.1077 120.709 17.1077 120.714 17.1077C120.719 17.1077 120.725 17.1077 120.73 17.1077C120.735 17.1077 120.741 17.1077 120.746 17.1077C120.751 17.1077 120.757 17.1077 120.762 17.1077C120.767 17.1077 120.773 17.1077 120.778 17.1077C120.783 17.1077 120.789 17.1077 120.794 17.1077C120.799 17.1077 120.804 17.1077 120.81 17.1077C120.815 17.1077 120.82 17.1077 120.826 17.1077C120.831 17.1077 120.836 17.1077 120.842 17.1077C120.847 17.1077 120.852 17.1077 120.857 17.1077C120.863 17.1077 120.868 17.1077 120.873 17.1077C120.879 17.1077 120.884 17.1077 120.889 17.1077C120.894 17.1077 120.9 17.1077 120.905 17.1077C120.91 17.1077 120.915 17.1077 120.921 17.1077C120.926 17.1077 120.931 17.1077 120.936 17.1077C120.942 17.1077 120.947 17.1077 120.952 17.1077C120.957 17.1077 120.963 17.1077 120.968 17.1077C120.973 17.1077 120.978 17.1077 120.984 17.1077C120.989 17.1077 120.994 17.1077 120.999 17.1077C121.004 17.1077 121.01 17.1077 121.015 17.1077C121.02 17.1077 121.025 17.1077 121.031 17.1077C121.036 17.1077 121.041 17.1077 121.046 17.1077C121.051 17.1077 121.056 17.1077 121.062 17.1077C121.067 17.1077 121.072 17.1077 121.077 17.1077C121.082 17.1077 121.088 17.1077 121.093 17.1077C121.098 17.1077 121.103 17.1077 121.108 17.1077C121.113 17.1077 121.119 17.1077 121.124 17.1077C121.129 17.1077 121.134 17.1077 121.139 17.1077C121.144 17.1077 121.149 17.1077 121.155 17.1077C121.16 17.1077 121.165 17.1077 121.17 17.1077C121.175 17.1077 121.18 17.1077 121.185 17.1077C121.19 17.1077 121.196 17.1077 121.201 17.1077C121.206 17.1077 121.211 17.1077 121.216 17.1077C121.221 17.1077 121.226 17.1077 121.231 17.1077C121.236 17.1077 121.241 17.1077 121.246 17.1077C121.252 17.1077 121.257 17.1077 121.262 17.1077C121.267 17.1077 121.272 17.1077 121.277 17.1077C121.282 17.1077 121.287 17.1077 121.292 17.1077C121.297 17.1077 121.302 17.1077 121.307 17.1077C121.312 17.1077 121.317 17.1077 121.322 17.1077C121.327 17.1077 121.332 17.1077 121.337 17.1077C121.342 17.1077 121.347 17.1077 121.352 17.1077C121.358 17.1077 121.363 17.1077 121.368 17.1077C121.373 17.1077 121.378 17.1077 121.383 17.1077C121.388 17.1077 121.392 17.1077 121.397 17.1077C121.402 17.1077 121.407 17.1077 121.412 17.1077C121.417 17.1077 121.422 17.1077 121.427 17.1077C121.432 17.1077 121.437 17.1077 121.442 17.1077C121.447 17.1077 121.452 17.1077 121.457 17.1077C121.462 17.1077 121.467 17.1077 121.472 17.1077C121.477 17.1077 121.482 17.1077 121.487 17.1077C121.492 17.1077 121.496 17.1077 121.501 17.1077C121.506 17.1077 121.511 17.1077 121.516 17.1077C121.521 17.1077 121.526 17.1077 121.531 17.1077C121.536 17.1077 121.541 17.1077 121.545 17.1077C121.55 17.1077 121.555 17.1077 121.56 17.1077C121.565 17.1077 121.57 17.1077 121.575 17.1077C121.58 17.1077 121.584 17.1077 121.589 17.1077C121.594 17.1077 121.599 17.1077 121.604 17.1077C121.609 17.1077 121.613 17.1077 121.618 17.1077C121.623 17.1077 121.628 17.1077 121.633 17.1077C121.637 17.1077 121.642 17.1077 121.647 17.1077C121.652 17.1077 121.657 17.1077 121.661 17.1077C121.666 17.1077 121.671 17.1077 121.676 17.1077C121.681 17.1077 121.685 17.1077 121.69 17.1077C121.695 17.1077 121.7 17.1077 121.704 17.1077C121.709 17.1077 121.714 17.1077 121.719 17.1077C121.723 17.1077 121.728 17.1077 121.733 17.1077C121.738 17.1077 121.742 17.1077 121.747 17.1077C121.752 17.1077 121.757 17.1077 121.761 17.1077C121.766 17.1077 121.771 17.1077 121.775 17.1077C121.78 17.1077 121.785 17.1077 121.789 17.1077C121.794 17.1077 121.799 17.1077 121.803 17.1077C121.808 17.1077 121.813 17.1077 121.817 17.1077C121.822 17.1077 121.827 17.1077 121.831 17.1077C121.836 17.1077 121.841 17.1077 121.845 17.1077C121.85 17.1077 121.855 17.1077 121.859 17.1077C121.864 17.1077 121.868 17.1077 121.873 17.1077C121.878 17.1077 121.882 17.1077 121.887 17.1077C121.891 17.1077 121.896 17.1077 121.901 17.1077C121.905 17.1077 121.91 17.1077 121.914 17.1077C121.919 17.1077 121.924 17.1077 121.928 17.1077C121.933 17.1077 121.937 17.1077 121.942 17.1077C121.946 17.1077 121.951 17.1077 121.955 17.1077C121.96 17.1077 121.964 17.1077 121.969 17.1077C121.973 17.1077 121.978 17.1077 121.982 17.1077C121.987 17.1077 121.991 17.1077 121.996 17.1077C122 17.1077 122.005 17.1077 122.009 17.1077C122.014 17.1077 122.018 17.1077 122.023 17.1077C122.027 17.1077 122.032 17.1077 122.036 17.1077C122.041 17.1077 122.045 17.1077 122.05 17.1077C122.054 17.1077 122.058 17.1077 122.063 17.1077C122.067 17.1077 122.072 17.1077 122.076 17.1077C122.08 17.1077 122.085 17.1077 122.089 17.1077C122.094 17.1077 122.098 17.1077 122.102 17.1077C122.107 17.1077 122.111 17.1077 122.116 17.1077C122.12 17.1077 122.124 17.1077 122.129 17.1077C122.133 17.1077 122.137 17.1077 122.142 17.1077C122.146 17.1077 122.15 17.1077 122.155 17.1077C122.159 17.1077 122.163 17.1077 122.168 17.1077C122.172 17.1077 122.176 17.1077 122.181 17.1077C122.185 17.1077 122.189 17.1077 122.193 17.1077C122.198 17.1077 122.202 17.1077 122.206 17.1077C122.211 17.1077 122.215 17.1077 122.219 17.1077C122.223 17.1077 122.228 17.1077 122.232 17.1077C122.236 17.1077 122.24 17.1077 122.245 17.1077C122.249 17.1077 122.253 17.1077 122.257 17.1077C122.261 17.1077 122.266 17.1077 122.27 17.1077C122.274 17.1077 122.278 17.1077 122.282 17.1077C122.287 17.1077 122.291 17.1077 122.295 17.1077C122.299 17.1077 122.303 17.1077 122.307 17.1077C122.311 17.1077 122.316 17.1077 122.32 17.1077C122.324 17.1077 122.328 17.1077 122.332 17.1077C122.336 17.1077 122.34 17.1077 122.344 17.1077C122.349 17.1077 122.353 17.1077 122.357 17.1077C122.361 17.1077 122.365 17.1077 122.369 17.1077C122.373 17.1077 122.377 17.1077 122.381 17.1077C122.385 17.1077 122.389 17.1077 122.393 17.1077C122.397 17.1077 122.401 17.1077 122.405 17.1077C122.409 17.1077 122.413 17.1077 122.417 17.1077C122.421 17.1077 122.425 17.1077 122.429 17.1077C122.433 17.1077 122.437 17.1077 122.441 17.1077C122.445 17.1077 122.449 17.1077 122.453 17.1077C122.457 17.1077 122.461 17.1077 122.465 17.1077C122.469 17.1077 122.473 17.1077 122.477 17.1077C122.481 17.1077 122.485 17.1077 122.489 17.1077C122.493 17.1077 122.497 17.1077 122.5 17.1077C122.504 17.1077 122.508 17.1077 122.512 17.1077C122.516 17.1077 122.52 17.1077 122.524 17.1077C122.528 17.1077 122.531 17.1077 122.535 17.1077C122.539 17.1077 122.543 17.1077 122.547 17.1077C122.551 17.1077 122.554 17.1077 122.558 17.1077C122.562 17.1077 122.566 17.1077 122.57 17.1077C122.573 17.1077 122.577 17.1077 122.581 17.1077C122.585 17.1077 122.589 17.1077 122.592 17.1077C122.596 17.1077 122.6 17.1077 122.604 17.1077C122.607 17.1077 122.611 17.1077 122.615 17.1077C122.619 17.1077 122.622 17.1077 122.626 17.1077C122.63 17.1077 122.633 17.1077 122.637 17.1077C122.641 17.1077 122.644 17.1077 122.648 17.1077C122.652 17.1077 122.655 17.1077 122.659 17.1077C122.663 17.1077 122.666 17.1077 122.67 17.1077C122.674 17.1077 122.677 17.1077 122.681 17.1077C122.685 17.1077 122.688 17.1077 122.692 17.1077C122.695 17.1077 122.699 17.1077 122.703 17.1077C122.706 17.1077 122.71 17.1077 122.713 17.1077C122.717 17.1077 122.72 17.1077 122.724 17.1077C122.727 17.1077 122.731 17.1077 122.735 17.1077C122.738 17.1077 122.742 17.1077 122.745 17.1077C122.749 17.1077 122.752 17.1077 122.756 17.1077C122.759 17.1077 122.763 17.1077 122.766 17.1077C122.77 17.1077 122.773 17.1077 122.776 17.1077C122.78 17.1077 122.783 17.1077 122.787 17.1077C122.79 17.1077 122.794 17.1077 122.797 17.1077C122.8 17.1077 122.804 17.1077 122.807 17.1077C122.811 17.1077 122.814 17.1077 122.817 17.1077C122.821 17.1077 122.824 17.1077 122.828 17.1077C122.831 17.1077 122.834 17.1077 122.838 17.1077C122.841 17.1077 122.844 17.1077 122.848 17.1077C122.851 17.1077 122.854 17.1077 122.858 17.1077C122.861 17.1077 122.864 17.1077 122.867 17.1077C122.871 17.1077 122.874 17.1077 122.877 17.1077C122.881 17.1077 122.884 17.1077 122.887 17.1077C122.89 17.1077 122.894 17.1077 122.897 17.1077C122.9 17.1077 122.903 17.1077 122.906 17.1077C122.91 17.1077 122.913 17.1077 122.916 17.1077C122.919 17.1077 122.922 17.1077 122.926 17.1077C122.929 17.1077 122.932 17.1077 122.935 17.1077C122.938 17.1077 122.941 17.1077 122.945 17.1077C122.948 17.1077 122.951 17.1077 122.954 17.1077C122.957 17.1077 122.96 17.1077 122.963 17.1077C122.966 17.1077 122.969 17.1077 122.972 17.1077C122.975 17.1077 122.979 17.1077 122.982 17.1077C122.985 17.1077 122.988 17.1077 122.991 17.1077C122.994 17.1077 122.997 17.1077 123 17.1077C123.003 17.1077 123.006 17.1077 123.009 17.1077C123.012 17.1077 123.015 17.1077 123.018 17.1077C123.021 17.1077 123.024 17.1077 123.027 17.1077C123.03 17.1077 123.032 17.1077 123.035 17.1077C123.038 17.1077 123.041 17.1077 123.044 17.1077C123.047 17.1077 123.05 17.1077 123.053 17.1077C123.056 17.1077 123.059 17.1077 123.061 17.1077C123.064 17.1077 123.067 17.1077 123.07 17.1077C123.073 17.1077 123.076 17.1077 123.079 17.1077C123.081 17.1077 123.084 17.1077 123.087 17.1077C123.09 17.1077 123.093 17.1077 123.095 17.1077C123.098 17.1077 123.101 17.1077 123.104 17.1077C123.106 17.1077 123.109 17.1077 123.112 17.1077C123.115 17.1077 123.117 17.1077 123.12 17.1077C123.123 17.1077 123.126 17.1077 123.128 17.1077C123.131 17.1077 123.134 17.1077 123.136 17.1077C123.139 17.1077 123.142 17.1077 123.144 17.1077C123.147 17.1077 123.15 17.1077 123.152 17.1077C123.155 17.1077 123.157 17.1077 123.16 17.1077C123.163 17.1077 123.165 17.1077 123.168 17.1077C123.17 17.1077 123.173 17.1077 123.176 17.1077C123.178 17.1077 123.181 17.1077 123.183 17.1077C123.186 17.1077 123.188 17.1077 123.191 17.1077C123.193 17.1077 123.196 17.1077 123.198 17.1077C123.201 17.1077 123.203 17.1077 123.206 17.1077C123.208 17.1077 123.211 17.1077 123.213 17.1077C123.216 17.1077 123.218 17.1077 123.221 17.1077C123.223 17.1077 123.225 17.1077 123.228 17.1077C123.23 17.1077 123.233 17.1077 123.235 17.1077C123.237 17.1077 123.24 17.1077 123.242 17.1077C123.245 17.1077 123.247 17.1077 123.249 17.1077C123.252 17.1077 123.254 17.1077 123.256 17.1077C123.259 17.1077 123.261 17.1077 123.263 17.1077C123.265 17.1077 123.268 17.1077 123.27 17.1077C123.272 17.1077 123.275 17.1077 123.277 17.1077C123.279 17.1077 123.281 17.1077 123.284 17.1077C123.286 17.1077 123.288 17.1077 123.29 17.1077C123.292 17.1077 123.295 17.1077 123.297 17.1077C123.299 17.1077 123.301 17.1077 123.303 17.1077C123.305 17.1077 123.308 17.1077 123.31 17.1077C123.312 17.1077 123.314 17.1077 123.316 17.1077C123.318 17.1077 123.32 17.1077 123.322 17.1077C123.324 17.1077 123.326 17.1077 123.329 17.1077C123.331 17.1077 123.333 17.1077 123.335 17.1077C123.337 17.1077 123.339 17.1077 123.341 17.1077C123.343 17.1077 123.345 17.1077 123.347 17.1077C123.349 17.1077 123.351 17.1077 123.353 17.1077C123.355 17.1077 123.357 17.1077 123.359 17.1077C123.361 17.1077 123.362 17.1077 123.364 17.1077C123.366 17.1077 123.368 17.1077 123.37 17.1077C123.372 17.1077 123.374 17.1077 123.376 17.1077C123.378 17.1077 123.379 17.1077 123.381 17.1077C123.383 17.1077 123.385 17.1077 123.387 17.1077C123.389 17.1077 123.39 17.1077 123.392 17.1077C123.394 17.1077 123.396 17.1077 123.398 17.1077C123.399 17.1077 123.401 17.1077 123.403 17.1077C123.405 17.1077 123.406 17.1077 123.408 17.1077C123.41 17.1077 123.412 17.1077 123.413 17.1077C123.415 17.1077 123.417 17.1077 123.418 17.1077C123.42 17.1077 123.422 17.1077 123.423 17.1077C123.425 17.1077 123.427 17.1077 123.428 17.1077C123.43 17.1077 123.431 17.1077 123.433 17.1077C123.435 17.1077 123.436 17.1077 123.438 17.1077C123.439 17.1077 123.441 17.1077 123.442 17.1077C123.444 17.1077 123.446 17.1077 123.447 17.1077C123.449 17.1077 123.45 17.1077 123.452 17.1077C123.453 17.1077 123.455 17.1077 123.456 17.1077C123.457 17.1077 123.459 17.1077 123.46 17.1077C123.462 17.1077 123.463 17.1077 123.465 17.1077C123.466 17.1077 123.467 17.1077 123.469 17.1077C123.47 17.1077 123.472 17.1077 123.473 17.1077C123.474 17.1077 123.476 17.1077 123.477 17.1077C123.478 17.1077 123.48 17.1077 123.481 17.1077C123.482 17.1077 123.484 17.1077 123.485 17.1077C123.486 17.1077 123.488 17.1077 123.489 17.1077C123.49 17.1077 123.491 17.1077 123.493 17.1077C123.494 17.1077 123.495 17.1077 123.496 17.1077C123.497 17.1077 123.499 17.1077 123.5 17.1077C123.501 17.1077 123.502 17.1077 123.503 17.1077C123.504 17.1077 123.506 17.1077 123.507 17.1077C123.508 17.1077 123.509 17.1077 123.51 17.1077C123.511 17.1077 123.512 17.1077 123.513 17.1077C123.514 17.1077 123.516 17.1077 123.517 17.1077C123.518 17.1077 123.519 17.1077 123.52 17.1077C123.521 17.1077 123.522 17.1077 123.523 17.1077C123.524 17.1077 123.525 17.1077 123.526 17.1077C123.527 17.1077 123.528 17.1077 123.529 17.1077C123.529 17.1077 123.53 17.1077 123.531 17.1077C123.532 17.1077 123.533 17.1077 123.534 17.1077C123.535 17.1077 123.536 17.1077 123.537 17.1077C123.537 17.1077 123.538 17.1077 123.539 17.1077C123.54 17.1077 123.541 17.1077 123.542 17.1077C123.542 17.1077 123.543 17.1077 123.544 17.1077C123.545 17.1077 123.546 17.1077 123.546 17.1077C123.547 17.1077 123.548 17.1077 123.548 17.1077C123.549 17.1077 123.55 17.1077 123.551 17.1077C123.551 17.1077 123.552 17.1077 123.553 17.1077C123.553 17.1077 123.554 17.1077 123.555 17.1077C123.555 17.1077 123.556 17.1077 123.556 17.1077C123.557 17.1077 123.558 17.1077 123.558 17.1077C123.559 17.1077 123.559 17.1077 123.56 17.1077C123.56 17.1077 123.561 17.1077 123.562 17.1077C123.562 17.1077 123.563 17.1077 123.563 17.1077C123.564 17.1077 123.564 17.1077 123.565 17.1077C123.565 17.1077 123.565 17.1077 123.566 17.1077C123.566 17.1077 123.567 17.1077 123.567 17.1077C123.568 17.1077 123.568 17.1077 123.568 17.1077C123.569 17.1077 123.569 17.1077 123.569 17.1077C123.57 17.1077 123.57 17.1077 123.57 17.1077C123.571 17.1077 123.571 17.1077 123.571 17.1077C123.572 17.1077 123.572 17.1077 123.572 17.1077C123.572 17.1077 123.573 17.1077 123.573 17.1077C123.573 17.1077 123.573 17.1077 123.574 17.1077C123.574 17.1077 123.574 17.1077 123.574 17.1077C123.574 17.1077 123.575 17.1077 123.575 17.1077C123.575 17.1077 123.575 17.1077 123.575 17.1077C123.575 17.1077 123.575 17.1077 123.575 17.1077C123.576 17.1077 123.576 17.1077 123.576 17.1077C123.576 17.1077 123.576 17.1077 123.576 17.1077C123.576 17.1077 123.576 17.1077 123.576 15.0815C123.576 13.0552 123.576 13.0552 123.576 13.0552C123.576 13.0552 123.576 13.0552 123.576 13.0552C123.576 13.0552 123.576 13.0552 123.575 13.0552C123.575 13.0552 123.575 13.0552 123.575 13.0552C123.575 13.0552 123.575 13.0552 123.575 13.0552C123.575 13.0552 123.574 13.0552 123.574 13.0552C123.574 13.0552 123.574 13.0552 123.574 13.0552C123.573 13.0552 123.573 13.0552 123.573 13.0552C123.573 13.0552 123.572 13.0552 123.572 13.0552C123.572 13.0552 123.572 13.0552 123.571 13.0552C123.571 13.0552 123.571 13.0552 123.57 13.0552C123.57 13.0552 123.57 13.0552 123.569 13.0552C123.569 13.0552 123.569 13.0552 123.568 13.0552C123.568 13.0552 123.568 13.0552 123.567 13.0552C123.567 13.0552 123.566 13.0552 123.566 13.0552C123.565 13.0552 123.565 13.0552 123.565 13.0552C123.564 13.0552 123.564 13.0552 123.563 13.0552C123.563 13.0552 123.562 13.0552 123.562 13.0552C123.561 13.0552 123.56 13.0552 123.56 13.0552C123.559 13.0552 123.559 13.0552 123.558 13.0552C123.558 13.0552 123.557 13.0552 123.556 13.0552C123.556 13.0552 123.555 13.0552 123.555 13.0552C123.554 13.0552 123.553 13.0552 123.553 13.0552C123.552 13.0552 123.551 13.0552 123.551 13.0552C123.55 13.0552 123.549 13.0552 123.548 13.0552C123.548 13.0552 123.547 13.0552 123.546 13.0552C123.546 13.0552 123.545 13.0552 123.544 13.0552C123.543 13.0552 123.542 13.0552 123.542 13.0552C123.541 13.0552 123.54 13.0552 123.539 13.0552C123.538 13.0552 123.537 13.0552 123.537 13.0552C123.536 13.0552 123.535 13.0552 123.534 13.0552C123.533 13.0552 123.532 13.0552 123.531 13.0552C123.53 13.0552 123.529 13.0552 123.529 13.0552C123.528 13.0552 123.527 13.0552 123.526 13.0552C123.525 13.0552 123.524 13.0552 123.523 13.0552C123.522 13.0552 123.521 13.0552 123.52 13.0552C123.519 13.0552 123.518 13.0552 123.517 13.0552C123.516 13.0552 123.514 13.0552 123.513 13.0552C123.512 13.0552 123.511 13.0552 123.51 13.0552C123.509 13.0552 123.508 13.0552 123.507 13.0552C123.506 13.0552 123.504 13.0552 123.503 13.0552C123.502 13.0552 123.501 13.0552 123.5 13.0552C123.499 13.0552 123.497 13.0552 123.496 13.0552C123.495 13.0552 123.494 13.0552 123.493 13.0552C123.491 13.0552 123.49 13.0552 123.489 13.0552C123.488 13.0552 123.486 13.0552 123.485 13.0552C123.484 13.0552 123.482 13.0552 123.481 13.0552C123.48 13.0552 123.478 13.0552 123.477 13.0552C123.476 13.0552 123.474 13.0552 123.473 13.0552C123.472 13.0552 123.47 13.0552 123.469 13.0552C123.467 13.0552 123.466 13.0552 123.465 13.0552C123.463 13.0552 123.462 13.0552 123.46 13.0552C123.459 13.0552 123.457 13.0552 123.456 13.0552C123.455 13.0552 123.453 13.0552 123.452 13.0552C123.45 13.0552 123.449 13.0552 123.447 13.0552C123.446 13.0552 123.444 13.0552 123.442 13.0552C123.441 13.0552 123.439 13.0552 123.438 13.0552C123.436 13.0552 123.435 13.0552 123.433 13.0552C123.431 13.0552 123.43 13.0552 123.428 13.0552C123.427 13.0552 123.425 13.0552 123.423 13.0552C123.422 13.0552 123.42 13.0552 123.418 13.0552C123.417 13.0552 123.415 13.0552 123.413 13.0552C123.412 13.0552 123.41 13.0552 123.408 13.0552C123.406 13.0552 123.405 13.0552 123.403 13.0552C123.401 13.0552 123.399 13.0552 123.398 13.0552C123.396 13.0552 123.394 13.0552 123.392 13.0552C123.39 13.0552 123.389 13.0552 123.387 13.0552C123.385 13.0552 123.383 13.0552 123.381 13.0552C123.379 13.0552 123.378 13.0552 123.376 13.0552C123.374 13.0552 123.372 13.0552 123.37 13.0552C123.368 13.0552 123.366 13.0552 123.364 13.0552C123.362 13.0552 123.361 13.0552 123.359 13.0552C123.357 13.0552 123.355 13.0552 123.353 13.0552C123.351 13.0552 123.349 13.0552 123.347 13.0552C123.345 13.0552 123.343 13.0552 123.341 13.0552C123.339 13.0552 123.337 13.0552 123.335 13.0552C123.333 13.0552 123.331 13.0552 123.329 13.0552C123.326 13.0552 123.324 13.0552 123.322 13.0552C123.32 13.0552 123.318 13.0552 123.316 13.0552C123.314 13.0552 123.312 13.0552 123.31 13.0552C123.308 13.0552 123.305 13.0552 123.303 13.0552C123.301 13.0552 123.299 13.0552 123.297 13.0552C123.295 13.0552 123.292 13.0552 123.29 13.0552C123.288 13.0552 123.286 13.0552 123.284 13.0552C123.281 13.0552 123.279 13.0552 123.277 13.0552C123.275 13.0552 123.272 13.0552 123.27 13.0552C123.268 13.0552 123.265 13.0552 123.263 13.0552C123.261 13.0552 123.259 13.0552 123.256 13.0552C123.254 13.0552 123.252 13.0552 123.249 13.0552C123.247 13.0552 123.245 13.0552 123.242 13.0552C123.24 13.0552 123.237 13.0552 123.235 13.0552C123.233 13.0552 123.23 13.0552 123.228 13.0552C123.225 13.0552 123.223 13.0552 123.221 13.0552C123.218 13.0552 123.216 13.0552 123.213 13.0552C123.211 13.0552 123.208 13.0552 123.206 13.0552C123.203 13.0552 123.201 13.0552 123.198 13.0552C123.196 13.0552 123.193 13.0552 123.191 13.0552C123.188 13.0552 123.186 13.0552 123.183 13.0552C123.181 13.0552 123.178 13.0552 123.176 13.0552C123.173 13.0552 123.17 13.0552 123.168 13.0552C123.165 13.0552 123.163 13.0552 123.16 13.0552C123.157 13.0552 123.155 13.0552 123.152 13.0552C123.15 13.0552 123.147 13.0552 123.144 13.0552C123.142 13.0552 123.139 13.0552 123.136 13.0552C123.134 13.0552 123.131 13.0552 123.128 13.0552C123.126 13.0552 123.123 13.0552 123.12 13.0552C123.117 13.0552 123.115 13.0552 123.112 13.0552C123.109 13.0552 123.106 13.0552 123.104 13.0552C123.101 13.0552 123.098 13.0552 123.095 13.0552C123.093 13.0552 123.09 13.0552 123.087 13.0552C123.084 13.0552 123.081 13.0552 123.079 13.0552C123.076 13.0552 123.073 13.0552 123.07 13.0552C123.067 13.0552 123.064 13.0552 123.061 13.0552C123.059 13.0552 123.056 13.0552 123.053 13.0552C123.05 13.0552 123.047 13.0552 123.044 13.0552C123.041 13.0552 123.038 13.0552 123.035 13.0552C123.032 13.0552 123.03 13.0552 123.027 13.0552C123.024 13.0552 123.021 13.0552 123.018 13.0552C123.015 13.0552 123.012 13.0552 123.009 13.0552C123.006 13.0552 123.003 13.0552 123 13.0552C122.997 13.0552 122.994 13.0552 122.991 13.0552C122.988 13.0552 122.985 13.0552 122.982 13.0552C122.979 13.0552 122.975 13.0552 122.972 13.0552C122.969 13.0552 122.966 13.0552 122.963 13.0552C122.96 13.0552 122.957 13.0552 122.954 13.0552C122.951 13.0552 122.948 13.0552 122.945 13.0552C122.941 13.0552 122.938 13.0552 122.935 13.0552C122.932 13.0552 122.929 13.0552 122.926 13.0552C122.922 13.0552 122.919 13.0552 122.916 13.0552C122.913 13.0552 122.91 13.0552 122.906 13.0552C122.903 13.0552 122.9 13.0552 122.897 13.0552C122.894 13.0552 122.89 13.0552 122.887 13.0552C122.884 13.0552 122.881 13.0552 122.877 13.0552C122.874 13.0552 122.871 13.0552 122.867 13.0552C122.864 13.0552 122.861 13.0552 122.858 13.0552C122.854 13.0552 122.851 13.0552 122.848 13.0552C122.844 13.0552 122.841 13.0552 122.838 13.0552C122.834 13.0552 122.831 13.0552 122.828 13.0552C122.824 13.0552 122.821 13.0552 122.817 13.0552C122.814 13.0552 122.811 13.0552 122.807 13.0552C122.804 13.0552 122.8 13.0552 122.797 13.0552C122.794 13.0552 122.79 13.0552 122.787 13.0552C122.783 13.0552 122.78 13.0552 122.776 13.0552C122.773 13.0552 122.77 13.0552 122.766 13.0552C122.763 13.0552 122.759 13.0552 122.756 13.0552C122.752 13.0552 122.749 13.0552 122.745 13.0552C122.742 13.0552 122.738 13.0552 122.735 13.0552C122.731 13.0552 122.727 13.0552 122.724 13.0552C122.72 13.0552 122.717 13.0552 122.713 13.0552C122.71 13.0552 122.706 13.0552 122.703 13.0552C122.699 13.0552 122.695 13.0552 122.692 13.0552C122.688 13.0552 122.685 13.0552 122.681 13.0552C122.677 13.0552 122.674 13.0552 122.67 13.0552C122.666 13.0552 122.663 13.0552 122.659 13.0552C122.655 13.0552 122.652 13.0552 122.648 13.0552C122.644 13.0552 122.641 13.0552 122.637 13.0552C122.633 13.0552 122.63 13.0552 122.626 13.0552C122.622 13.0552 122.619 13.0552 122.615 13.0552C122.611 13.0552 122.607 13.0552 122.604 13.0552C122.6 13.0552 122.596 13.0552 122.592 13.0552C122.589 13.0552 122.585 13.0552 122.581 13.0552C122.577 13.0552 122.573 13.0552 122.57 13.0552C122.566 13.0552 122.562 13.0552 122.558 13.0552C122.554 13.0552 122.551 13.0552 122.547 13.0552C122.543 13.0552 122.539 13.0552 122.535 13.0552C122.531 13.0552 122.528 13.0552 122.524 13.0552C122.52 13.0552 122.516 13.0552 122.512 13.0552C122.508 13.0552 122.504 13.0552 122.5 13.0552C122.497 13.0552 122.493 13.0552 122.489 13.0552C122.485 13.0552 122.481 13.0552 122.477 13.0552C122.473 13.0552 122.469 13.0552 122.465 13.0552C122.461 13.0552 122.457 13.0552 122.453 13.0552C122.449 13.0552 122.445 13.0552 122.441 13.0552C122.437 13.0552 122.433 13.0552 122.429 13.0552C122.425 13.0552 122.421 13.0552 122.417 13.0552C122.413 13.0552 122.409 13.0552 122.405 13.0552C122.401 13.0552 122.397 13.0552 122.393 13.0552C122.389 13.0552 122.385 13.0552 122.381 13.0552C122.377 13.0552 122.373 13.0552 122.369 13.0552C122.365 13.0552 122.361 13.0552 122.357 13.0552C122.353 13.0552 122.349 13.0552 122.344 13.0552C122.34 13.0552 122.336 13.0552 122.332 13.0552C122.328 13.0552 122.324 13.0552 122.32 13.0552C122.316 13.0552 122.311 13.0552 122.307 13.0552C122.303 13.0552 122.299 13.0552 122.295 13.0552C122.291 13.0552 122.287 13.0552 122.282 13.0552C122.278 13.0552 122.274 13.0552 122.27 13.0552C122.266 13.0552 122.261 13.0552 122.257 13.0552C122.253 13.0552 122.249 13.0552 122.245 13.0552C122.24 13.0552 122.236 13.0552 122.232 13.0552C122.228 13.0552 122.223 13.0552 122.219 13.0552C122.215 13.0552 122.211 13.0552 122.206 13.0552C122.202 13.0552 122.198 13.0552 122.193 13.0552C122.189 13.0552 122.185 13.0552 122.181 13.0552C122.176 13.0552 122.172 13.0552 122.168 13.0552C122.163 13.0552 122.159 13.0552 122.155 13.0552C122.15 13.0552 122.146 13.0552 122.142 13.0552C122.137 13.0552 122.133 13.0552 122.129 13.0552C122.124 13.0552 122.12 13.0552 122.116 13.0552C122.111 13.0552 122.107 13.0552 122.102 13.0552C122.098 13.0552 122.094 13.0552 122.089 13.0552C122.085 13.0552 122.08 13.0552 122.076 13.0552C122.072 13.0552 122.067 13.0552 122.063 13.0552C122.058 13.0552 122.054 13.0552 122.05 13.0552C122.045 13.0552 122.041 13.0552 122.036 13.0552C122.032 13.0552 122.027 13.0552 122.023 13.0552C122.018 13.0552 122.014 13.0552 122.009 13.0552C122.005 13.0552 122 13.0552 121.996 13.0552C121.991 13.0552 121.987 13.0552 121.982 13.0552C121.978 13.0552 121.973 13.0552 121.969 13.0552C121.964 13.0552 121.96 13.0552 121.955 13.0552C121.951 13.0552 121.946 13.0552 121.942 13.0552C121.937 13.0552 121.933 13.0552 121.928 13.0552C121.924 13.0552 121.919 13.0552 121.914 13.0552C121.91 13.0552 121.905 13.0552 121.901 13.0552C121.896 13.0552 121.891 13.0552 121.887 13.0552C121.882 13.0552 121.878 13.0552 121.873 13.0552C121.868 13.0552 121.864 13.0552 121.859 13.0552C121.855 13.0552 121.85 13.0552 121.845 13.0552C121.841 13.0552 121.836 13.0552 121.831 13.0552C121.827 13.0552 121.822 13.0552 121.817 13.0552C121.813 13.0552 121.808 13.0552 121.803 13.0552C121.799 13.0552 121.794 13.0552 121.789 13.0552C121.785 13.0552 121.78 13.0552 121.775 13.0552C121.771 13.0552 121.766 13.0552 121.761 13.0552C121.757 13.0552 121.752 13.0552 121.747 13.0552C121.742 13.0552 121.738 13.0552 121.733 13.0552C121.728 13.0552 121.723 13.0552 121.719 13.0552C121.714 13.0552 121.709 13.0552 121.704 13.0552C121.7 13.0552 121.695 13.0552 121.69 13.0552C121.685 13.0552 121.681 13.0552 121.676 13.0552C121.671 13.0552 121.666 13.0552 121.661 13.0552C121.657 13.0552 121.652 13.0552 121.647 13.0552C121.642 13.0552 121.637 13.0552 121.633 13.0552C121.628 13.0552 121.623 13.0552 121.618 13.0552C121.613 13.0552 121.609 13.0552 121.604 13.0552C121.599 13.0552 121.594 13.0552 121.589 13.0552C121.584 13.0552 121.58 13.0552 121.575 13.0552C121.57 13.0552 121.565 13.0552 121.56 13.0552C121.555 13.0552 121.55 13.0552 121.545 13.0552C121.541 13.0552 121.536 13.0552 121.531 13.0552C121.526 13.0552 121.521 13.0552 121.516 13.0552C121.511 13.0552 121.506 13.0552 121.501 13.0552C121.496 13.0552 121.492 13.0552 121.487 13.0552C121.482 13.0552 121.477 13.0552 121.472 13.0552C121.467 13.0552 121.462 13.0552 121.457 13.0552C121.452 13.0552 121.447 13.0552 121.442 13.0552C121.437 13.0552 121.432 13.0552 121.427 13.0552C121.422 13.0552 121.417 13.0552 121.412 13.0552C121.407 13.0552 121.402 13.0552 121.397 13.0552C121.392 13.0552 121.388 13.0552 121.383 13.0552C121.378 13.0552 121.373 13.0552 121.368 13.0552C121.363 13.0552 121.358 13.0552 121.352 13.0552C121.347 13.0552 121.342 13.0552 121.337 13.0552C121.332 13.0552 121.327 13.0552 121.322 13.0552C121.317 13.0552 121.312 13.0552 121.307 13.0552C121.302 13.0552 121.297 13.0552 121.292 13.0552C121.287 13.0552 121.282 13.0552 121.277 13.0552C121.272 13.0552 121.267 13.0552 121.262 13.0552C121.257 13.0552 121.252 13.0552 121.246 13.0552C121.241 13.0552 121.236 13.0552 121.231 13.0552C121.226 13.0552 121.221 13.0552 121.216 13.0552C121.211 13.0552 121.206 13.0552 121.201 13.0552C121.196 13.0552 121.19 13.0552 121.185 13.0552C121.18 13.0552 121.175 13.0552 121.17 13.0552C121.165 13.0552 121.16 13.0552 121.155 13.0552C121.149 13.0552 121.144 13.0552 121.139 13.0552C121.134 13.0552 121.129 13.0552 121.124 13.0552C121.119 13.0552 121.113 13.0552 121.108 13.0552C121.103 13.0552 121.098 13.0552 121.093 13.0552C121.088 13.0552 121.082 13.0552 121.077 13.0552C121.072 13.0552 121.067 13.0552 121.062 13.0552C121.056 13.0552 121.051 13.0552 121.046 13.0552C121.041 13.0552 121.036 13.0552 121.031 13.0552C121.025 13.0552 121.02 13.0552 121.015 13.0552C121.01 13.0552 121.004 13.0552 120.999 13.0552C120.994 13.0552 120.989 13.0552 120.984 13.0552C120.978 13.0552 120.973 13.0552 120.968 13.0552C120.963 13.0552 120.957 13.0552 120.952 13.0552C120.947 13.0552 120.942 13.0552 120.936 13.0552C120.931 13.0552 120.926 13.0552 120.921 13.0552C120.915 13.0552 120.91 13.0552 120.905 13.0552C120.9 13.0552 120.894 13.0552 120.889 13.0552C120.884 13.0552 120.879 13.0552 120.873 13.0552C120.868 13.0552 120.863 13.0552 120.857 13.0552C120.852 13.0552 120.847 13.0552 120.842 13.0552C120.836 13.0552 120.831 13.0552 120.826 13.0552C120.82 13.0552 120.815 13.0552 120.81 13.0552C120.804 13.0552 120.799 13.0552 120.794 13.0552C120.789 13.0552 120.783 13.0552 120.778 13.0552C120.773 13.0552 120.767 13.0552 120.762 13.0552C120.757 13.0552 120.751 13.0552 120.746 13.0552C120.741 13.0552 120.735 13.0552 120.73 13.0552C120.725 13.0552 120.719 13.0552 120.714 13.0552C120.709 13.0552 120.703 13.0552 120.698 13.0552C120.692 13.0552 120.687 13.0552 120.682 13.0552C120.676 13.0552 120.671 13.0552 120.666 13.0552C120.66 13.0552 120.655 13.0552 120.65 13.0552C120.644 13.0552 120.639 13.0552 120.633 13.0552C120.628 13.0552 120.623 13.0552 120.617 13.0552C120.612 13.0552 120.606 13.0552 120.601 13.0552C120.596 13.0552 120.59 13.0552 120.585 13.0552C120.579 13.0552 120.574 13.0552 120.569 13.0552C120.563 13.0552 120.558 13.0552 120.552 13.0552C120.547 13.0552 120.542 13.0552 120.536 13.0552C120.531 13.0552 120.525 13.0552 120.52 13.0552C120.515 13.0552 120.509 13.0552 120.504 13.0552C120.498 13.0552 120.493 13.0552 120.487 13.0552C120.482 13.0552 120.477 13.0552 120.471 13.0552C120.466 13.0552 120.46 13.0552 120.455 13.0552C120.449 13.0552 120.444 13.0552 120.438 13.0552C120.433 13.0552 120.428 13.0552 120.422 13.0552C120.417 13.0552 120.411 13.0552 120.406 13.0552C120.4 13.0552 120.395 13.0552 120.389 13.0552C120.384 13.0552 120.378 13.0552 120.373 13.0552C120.367 13.0552 120.362 13.0552 120.357 13.0552C120.351 13.0552 120.346 13.0552 120.34 13.0552C120.335 13.0552 120.329 13.0552 120.324 13.0552C120.318 13.0552 120.313 13.0552 120.307 13.0552C120.302 13.0552 120.296 13.0552 120.291 13.0552C120.285 13.0552 120.28 13.0552 120.274 13.0552C120.269 13.0552 120.263 13.0552 120.258 13.0552C120.252 13.0552 120.247 13.0552 120.241 13.0552C120.236 13.0552 120.23 13.0552 120.225 13.0552C120.219 13.0552 120.214 13.0552 120.208 13.0552C120.203 13.0552 120.197 13.0552 120.192 13.0552C120.186 13.0552 120.181 13.0552 120.175 13.0552C120.17 13.0552 120.164 13.0552 120.158 13.0552C120.153 13.0552 120.147 13.0552 120.142 13.0552C120.136 13.0552 120.131 13.0552 120.125 13.0552C120.12 13.0552 120.114 13.0552 120.109 13.0552C120.103 13.0552 120.098 13.0552 120.092 13.0552C120.087 13.0552 120.081 13.0552 120.075 13.0552C120.07 13.0552 120.064 13.0552 120.059 13.0552C120.053 13.0552 120.048 13.0552 120.042 13.0552C120.037 13.0552 120.031 13.0552 120.026 13.0552C120.02 13.0552 120.014 13.0552 120.009 13.0552C120.003 13.0552 119.998 13.0552 119.992 13.0552C119.987 13.0552 119.981 13.0552 119.976 13.0552C119.97 13.0552 119.964 13.0552 119.959 13.0552C119.953 13.0552 119.948 13.0552 119.942 13.0552C119.937 13.0552 119.931 13.0552 119.925 13.0552C119.92 13.0552 119.914 13.0552 119.909 13.0552C119.903 13.0552 119.898 13.0552 119.892 13.0552C119.886 13.0552 119.881 13.0552 119.875 13.0552C119.87 13.0552 119.864 13.0552 119.858 13.0552C119.853 13.0552 119.847 13.0552 119.842 13.0552C119.836 13.0552 119.831 13.0552 119.825 13.0552C119.819 13.0552 119.814 13.0552 119.808 13.0552C119.803 13.0552 119.797 13.0552 119.791 13.0552C119.786 13.0552 119.78 13.0552 119.775 13.0552C119.769 13.0552 119.763 13.0552 119.758 13.0552C119.752 13.0552 119.747 13.0552 119.741 13.0552C119.735 13.0552 119.73 13.0552 119.724 13.0552C119.719 13.0552 119.713 13.0552 119.707 13.0552C119.702 13.0552 119.696 13.0552 119.691 13.0552C119.685 13.0552 119.679 13.0552 119.674 13.0552C119.668 13.0552 119.663 13.0552 119.657 13.0552C119.651 13.0552 119.646 13.0552 119.64 13.0552C119.635 13.0552 119.629 13.0552 119.623 13.0552C119.618 13.0552 119.612 13.0552 119.607 13.0552C119.601 13.0552 119.595 13.0552 119.59 13.0552C119.584 13.0552 119.579 13.0552 119.573 13.0552C119.567 13.0552 119.562 13.0552 119.556 13.0552C119.55 13.0552 119.545 13.0552 119.539 13.0552C119.534 13.0552 119.528 13.0552 119.522 13.0552C119.517 13.0552 119.511 13.0552 119.506 13.0552C119.5 13.0552 119.494 13.0552 119.489 13.0552C119.483 13.0552 119.477 13.0552 119.472 13.0552C119.466 13.0552 119.461 13.0552 119.455 13.0552C119.449 13.0552 119.444 13.0552 119.438 13.0552C119.433 13.0552 119.427 13.0552 119.421 13.0552C119.416 13.0552 119.41 13.0552 119.404 13.0552C119.399 13.0552 119.393 13.0552 119.388 13.0552C119.382 13.0552 119.376 13.0552 119.371 13.0552C119.365 13.0552 119.359 13.0552 119.354 13.0552C119.348 13.0552 119.343 13.0552 119.337 13.0552C119.331 13.0552 119.326 13.0552 119.32 13.0552C119.315 13.0552 119.309 13.0552 119.303 13.0552C119.298 13.0552 119.292 13.0552 119.286 13.0552C119.281 13.0552 119.275 13.0552 119.27 13.0552C119.264 13.0552 119.258 13.0552 119.253 13.0552C119.247 13.0552 119.241 13.0552 119.236 13.0552C119.23 13.0552 119.225 13.0552 119.219 13.0552C119.213 13.0552 119.208 13.0552 119.202 13.0552C119.197 13.0552 119.191 13.0552 119.185 13.0552C119.18 13.0552 119.174 13.0552 119.168 13.0552C119.163 13.0552 119.157 13.0552 119.152 13.0552C119.146 13.0552 119.14 13.0552 119.135 13.0552C119.129 13.0552 119.124 13.0552 119.118 13.0552C119.112 13.0552 119.107 13.0552 119.101 13.0552C119.096 13.0552 119.09 13.0552 119.084 13.0552C119.079 13.0552 119.073 13.0552 119.067 13.0552C119.062 13.0552 119.056 13.0552 119.051 13.0552C119.045 13.0552 119.039 13.0552 119.034 13.0552C119.028 13.0552 119.023 13.0552 119.017 13.0552C119.011 13.0552 119.006 13.0552 119 13.0552C118.995 13.0552 118.989 13.0552 118.983 13.0552C118.978 13.0552 118.972 13.0552 118.967 13.0552C118.961 13.0552 118.955 13.0552 118.95 13.0552C118.944 13.0552 118.939 13.0552 118.933 13.0552C118.927 13.0552 118.922 13.0552 118.916 13.0552C118.911 13.0552 118.905 13.0552 118.899 13.0552C118.894 13.0552 118.888 13.0552 118.883 13.0552C118.877 13.0552 118.871 13.0552 118.866 13.0552C118.86 13.0552 118.855 13.0552 118.849 13.0552C118.844 13.0552 118.838 13.0552 118.832 13.0552C118.827 13.0552 118.821 13.0552 118.816 13.0552C118.81 13.0552 118.804 13.0552 118.799 13.0552C118.793 13.0552 118.788 13.0552 118.782 13.0552C118.777 13.0552 118.771 13.0552 118.765 13.0552C118.76 13.0552 118.754 13.0552 118.749 13.0552C118.743 13.0552 118.738 13.0552 118.732 13.0552C118.726 13.0552 118.721 13.0552 118.715 13.0552C118.71 13.0552 118.704 13.0552 118.699 13.0552C118.693 13.0552 118.688 13.0552 118.682 13.0552C118.676 13.0552 118.671 13.0552 118.665 13.0552C118.66 13.0552 118.654 13.0552 118.649 13.0552C118.643 13.0552 118.638 13.0552 118.632 13.0552C118.626 13.0552 118.621 13.0552 118.615 13.0552C118.61 13.0552 118.604 13.0552 118.599 13.0552C118.593 13.0552 118.588 13.0552 118.582 13.0552C118.577 13.0552 118.571 13.0552 118.565 13.0552C118.56 13.0552 118.554 13.0552 118.549 13.0552C118.543 13.0552 118.538 13.0552 118.532 13.0552C118.527 13.0552 118.521 13.0552 118.516 13.0552C118.51 13.0552 118.505 13.0552 118.499 13.0552C118.494 13.0552 118.488 13.0552 118.483 13.0552C118.477 13.0552 118.472 13.0552 118.466 13.0552C118.461 13.0552 118.455 13.0552 118.45 13.0552C118.444 13.0552 118.439 13.0552 118.433 13.0552C118.428 13.0552 118.422 13.0552 118.417 13.0552C118.411 13.0552 118.406 13.0552 118.4 13.0552C118.395 13.0552 118.389 13.0552 118.384 13.0552C118.378 13.0552 118.373 13.0552 118.367 13.0552C118.362 13.0552 118.356 13.0552 118.351 13.0552C118.345 13.0552 118.34 13.0552 118.334 13.0552C118.329 13.0552 118.323 13.0552 118.318 13.0552C118.312 13.0552 118.307 13.0552 118.301 13.0552C118.296 13.0552 118.29 13.0552 118.285 13.0552C118.28 13.0552 118.274 13.0552 118.269 13.0552C118.263 13.0552 118.258 13.0552 118.252 13.0552C118.247 13.0552 118.241 13.0552 118.236 13.0552C118.23 13.0552 118.225 13.0552 118.22 13.0552C118.214 13.0552 118.209 13.0552 118.203 13.0552C118.198 13.0552 118.192 13.0552 118.187 13.0552C118.182 13.0552 118.176 13.0552 118.171 13.0552C118.165 13.0552 118.16 13.0552 118.154 13.0552C118.149 13.0552 118.144 13.0552 118.138 13.0552C118.133 13.0552 118.127 13.0552 118.122 13.0552C118.117 13.0552 118.111 13.0552 118.106 13.0552C118.1 13.0552 118.095 13.0552 118.09 13.0552C118.084 13.0552 118.079 13.0552 118.073 13.0552C118.068 13.0552 118.063 13.0552 118.057 13.0552C118.052 13.0552 118.046 13.0552 118.041 13.0552C118.036 13.0552 118.03 13.0552 118.025 13.0552C118.02 13.0552 118.014 13.0552 118.009 13.0552C118.004 13.0552 117.998 13.0552 117.993 13.0552C117.987 13.0552 117.982 13.0552 117.977 13.0552C117.971 13.0552 117.966 13.0552 117.961 13.0552C117.955 13.0552 117.95 13.0552 117.945 13.0552C117.939 13.0552 117.934 13.0552 117.929 13.0552C117.923 13.0552 117.918 13.0552 117.913 13.0552C117.907 13.0552 117.902 13.0552 117.897 13.0552C117.891 13.0552 117.886 13.0552 117.881 13.0552C117.875 13.0552 117.87 13.0552 117.865 13.0552C117.86 13.0552 117.854 13.0552 117.849 13.0552C117.844 13.0552 117.838 13.0552 117.833 13.0552C117.828 13.0552 117.823 13.0552 117.817 13.0552C117.812 13.0552 117.807 13.0552 117.801 13.0552C117.796 13.0552 117.791 13.0552 117.786 13.0552C117.78 13.0552 117.775 13.0552 117.77 13.0552C117.765 13.0552 117.759 13.0552 117.754 13.0552C117.749 13.0552 117.744 13.0552 117.738 13.0552C117.733 13.0552 117.728 13.0552 117.723 13.0552C117.717 13.0552 117.712 13.0552 117.707 13.0552C117.702 13.0552 117.696 13.0552 117.691 13.0552C117.686 13.0552 117.681 13.0552 117.676 13.0552C117.67 13.0552 117.665 13.0552 117.66 13.0552C117.655 13.0552 117.65 13.0552 117.644 13.0552C117.639 13.0552 117.634 13.0552 117.629 13.0552C117.624 13.0552 117.618 13.0552 117.613 13.0552C117.608 13.0552 117.603 13.0552 117.598 13.0552C117.592 13.0552 117.587 13.0552 117.582 13.0552C117.577 13.0552 117.572 13.0552 117.567 13.0552C117.562 13.0552 117.556 13.0552 117.551 13.0552C117.546 13.0552 117.541 13.0552 117.536 13.0552C117.531 13.0552 117.526 13.0552 117.52 13.0552C117.515 13.0552 117.51 13.0552 117.505 13.0552C117.5 13.0552 117.495 13.0552 117.49 13.0552C117.485 13.0552 117.479 13.0552 117.474 13.0552C117.469 13.0552 117.464 13.0552 117.459 13.0552C117.454 13.0552 117.449 13.0552 117.444 13.0552C117.439 13.0552 117.434 13.0552 117.429 13.0552C117.423 13.0552 117.418 13.0552 117.413 13.0552C117.408 13.0552 117.403 13.0552 117.398 13.0552C117.393 13.0552 117.388 13.0552 117.383 13.0552C117.378 13.0552 117.373 13.0552 117.368 13.0552C117.363 13.0552 117.358 13.0552 117.353 13.0552C117.348 13.0552 117.343 13.0552 117.338 13.0552C117.333 13.0552 117.328 13.0552 117.323 13.0552C117.318 13.0552 117.313 13.0552 117.308 13.0552C117.303 13.0552 117.298 13.0552 117.293 13.0552C117.288 13.0552 117.283 13.0552 117.278 13.0552C117.273 13.0552 117.268 13.0552 117.263 13.0552C117.258 13.0552 117.253 13.0552 117.248 13.0552C117.243 13.0552 117.238 13.0552 117.233 13.0552C117.228 13.0552 117.223 13.0552 117.218 13.0552C117.213 13.0552 117.208 13.0552 117.203 13.0552C117.199 13.0552 117.194 13.0552 117.189 13.0552C117.184 13.0552 117.179 13.0552 117.174 13.0552C117.169 13.0552 117.164 13.0552 117.159 13.0552L117.159 17.1077ZM123.576 17.1077C123.576 17.1077 123.576 15.0815 123.576 13.0552C123.576 13.0552 123.576 13.0552 123.576 15.0815C123.576 17.1077 123.576 17.1077 123.576 17.1077C123.576 15.0815 123.576 13.0552 123.576 13.0552L123.576 17.1077ZM13.7378 54.174C15.1706 55.6068 16.6033 57.0396 16.6033 57.0396C16.6033 57.0396 15.1706 55.6068 13.7378 54.174L16.6033 57.0396C15.1706 55.6068 13.7378 54.174 13.7378 54.174C13.7378 54.174 15.1706 55.6068 16.6033 57.0396L13.7378 54.174ZM56.9308 16.7121C56.6775 16.9654 56.3339 17.1077 55.9757 17.1077L55.9757 13.0552C55.2591 13.0552 54.5719 13.3398 54.0653 13.8465L56.9308 16.7121Z" fill="black"/>
</svg>
