<svg width="71" height="111" viewBox="0 0 71 111" fill="none" xmlns="http://www.w3.org/2000/svg">
<path d="M54.6142 109.655C55.4055 110.447 56.6884 110.447 57.4797 109.655L70.3748 96.7603C71.1661 95.969 71.1661 94.686 70.3748 93.8947C69.5835 93.1034 68.3006 93.1034 67.5092 93.8947L56.047 105.357L44.5847 93.8947C43.7934 93.1034 42.5104 93.1034 41.7191 93.8947C40.9278 94.686 40.9278 95.969 41.7191 96.7603L54.6142 109.655ZM20.8431 23.2013C21.6344 23.9926 22.9173 23.9926 23.7086 23.2013C24.4999 22.41 24.4999 21.127 23.7086 20.3357L20.8431 23.2013ZM47.3484 43.9755C46.5571 43.1842 45.2741 43.1842 44.4828 43.9755C43.6915 44.7668 43.6915 46.0498 44.4828 46.8411L47.3484 43.9755ZM15.5216 15.0143L14.0888 16.4471L15.5216 15.0143ZM55.8491 55.3418L54.4163 56.7746L55.8491 55.3418ZM54.0207 55.8194V108.223H58.0732V55.8194H54.0207ZM0.580397 2.93865L14.0888 16.4471L16.9544 13.5815L3.44597 0.0730726L0.580397 2.93865ZM15.5216 15.0143C14.0888 16.4471 14.0889 16.4471 14.0889 16.4471C14.0889 16.4472 14.089 16.4472 14.089 16.4473C14.0891 16.4473 14.0892 16.4474 14.0893 16.4475C14.0894 16.4476 14.0895 16.4477 14.0896 16.4478C14.0897 16.4479 14.0903 16.4486 14.0905 16.4488C14.0906 16.4489 14.0916 16.4498 14.0918 16.4501C14.0954 16.4537 14.0915 16.4497 14.0955 16.4538C14.0975 16.4558 14.0958 16.4541 14.098 16.4562C14.0984 16.4566 14.0988 16.4571 14.0993 16.4575C14.0998 16.458 14.1002 16.4585 14.1007 16.459C14.1065 16.4648 14.098 16.4562 14.1039 16.4621C14.1044 16.4627 14.105 16.4632 14.1056 16.4638C14.1061 16.4644 14.1067 16.465 14.1073 16.4656C14.109 16.4673 14.1132 16.4715 14.1154 16.4736C14.1309 16.4891 14.1184 16.4766 14.1357 16.494C14.1488 16.5071 14.1466 16.5049 14.1615 16.5198C14.1976 16.5558 14.1549 16.5132 14.1928 16.551C14.2182 16.5764 14.2021 16.5604 14.2293 16.5875C14.2293 16.5876 14.2691 16.6274 14.2709 16.6291C14.2727 16.631 14.2746 16.6328 14.2764 16.6347C14.2783 16.6365 14.2802 16.6384 14.2821 16.6403C14.284 16.6422 14.2859 16.6441 14.2878 16.646C14.2897 16.6479 14.2916 16.6499 14.2936 16.6518C14.3112 16.6695 14.2876 16.6459 14.3054 16.6636C14.3154 16.6737 14.3074 16.6656 14.3175 16.6757C14.3332 16.6915 14.3141 16.6723 14.3299 16.6882C14.3412 16.6995 14.3313 16.6895 14.3426 16.7009C14.3434 16.7017 14.3678 16.7261 14.369 16.7272C14.4733 16.8316 14.3757 16.7339 14.4861 16.8444C14.565 16.9232 14.5365 16.8948 14.6212 16.9795C14.7386 17.0968 14.5764 16.9347 14.6952 17.0534C14.8072 17.1654 14.6599 17.0182 14.7733 17.1315C14.7999 17.1582 14.8274 17.1856 14.8553 17.2136C14.8657 17.2239 14.8871 17.2454 14.8978 17.2561C14.985 17.3432 14.8538 17.212 14.9412 17.2995C14.9584 17.3166 15.0125 17.3708 15.0309 17.3891C15.0364 17.3946 15.1174 17.4757 15.1241 17.4823C15.1441 17.5023 15.1518 17.51 15.172 17.5303C15.1742 17.5325 15.2183 17.5765 15.2208 17.579C15.2238 17.5821 15.2424 17.6007 15.2455 17.6038C15.2496 17.6079 15.2538 17.612 15.2579 17.6162C15.2621 17.6203 15.2662 17.6245 15.2704 17.6287C15.3068 17.6651 15.2841 17.6424 15.3208 17.6791C15.4686 17.8268 15.3786 17.7368 15.5304 17.8887C15.5484 17.9067 15.5665 17.9247 15.5847 17.943C15.6247 17.983 15.5995 17.9577 15.6397 17.998C15.7669 18.1251 15.5681 17.9263 15.6954 18.0537C15.7141 18.0724 15.7329 18.0912 15.7519 18.1101C15.8025 18.1607 15.8152 18.1734 15.8667 18.2249C15.9028 18.2611 15.8596 18.2178 15.8958 18.254C15.9123 18.2706 15.9084 18.2667 15.9251 18.2833C15.9702 18.3284 15.9387 18.297 15.9841 18.3423C16.082 18.4402 16.0052 18.3635 16.1039 18.4622C16.1307 18.4889 16.1378 18.496 16.1647 18.523C16.2273 18.5856 16.1326 18.4909 16.1953 18.5536C16.2004 18.5587 16.2056 18.5638 16.2107 18.5689C16.2158 18.5741 16.2209 18.5792 16.2261 18.5843C16.2312 18.5895 16.2363 18.5946 16.2415 18.5997C16.2466 18.6049 16.2518 18.61 16.257 18.6152C16.2621 18.6204 16.2673 18.6255 16.2724 18.6307C16.2776 18.6359 16.2828 18.641 16.288 18.6462C16.325 18.6833 16.282 18.6403 16.3191 18.6774C16.3243 18.6826 16.3295 18.6878 16.3348 18.693C16.34 18.6982 16.3452 18.7034 16.3504 18.7087C16.3918 18.7501 16.4347 18.793 16.4768 18.8351C16.5405 18.8988 16.5408 18.8991 16.6052 18.9634C16.6075 18.9657 16.7324 19.0906 16.7353 19.0935C16.8442 19.2025 16.6919 19.0502 16.801 19.1593C16.8306 19.1889 16.8373 19.1956 16.8671 19.2254C16.9489 19.3071 16.8185 19.1768 16.9003 19.2586C16.9218 19.28 16.9121 19.2704 16.9336 19.2919C16.9385 19.2968 16.9954 19.3537 17.0005 19.3587C17.089 19.4472 17.1811 19.5394 17.2713 19.6296C17.3692 19.7275 17.2418 19.6001 17.3398 19.6981C17.3864 19.7447 17.3275 19.6857 17.3742 19.7324C17.3799 19.7381 17.3856 19.7439 17.3914 19.7496C17.3971 19.7553 17.4028 19.7611 17.4086 19.7668C17.4768 19.835 17.4093 19.7675 17.4776 19.8358C17.4833 19.8416 17.4891 19.8474 17.4949 19.8531C17.5006 19.8589 17.5064 19.8647 17.5122 19.8704C17.518 19.8762 17.5237 19.882 17.5295 19.8878C17.5353 19.8935 17.5411 19.8993 17.5468 19.9051C17.5584 19.9166 17.57 19.9282 17.5816 19.9398C17.5873 19.9456 17.5931 19.9514 17.5989 19.9572C17.6047 19.963 17.6105 19.9688 17.6163 19.9746C17.6221 19.9804 17.6279 19.9862 17.6337 19.992C17.6395 19.9978 17.6453 20.0036 17.6511 20.0094C17.6979 20.0562 17.6392 19.9975 17.686 20.0443C17.752 20.1103 17.7597 20.118 17.826 20.1842C17.9686 20.3269 17.8238 20.182 17.9666 20.3248C17.9854 20.3436 17.9831 20.3413 18.0018 20.3601C18.0629 20.4212 17.976 20.3343 18.0371 20.3954C18.0679 20.4261 18.0769 20.4352 18.1077 20.466C18.1136 20.4719 18.1195 20.4778 18.1254 20.4837C18.1313 20.4895 18.1372 20.4954 18.1431 20.5013C18.149 20.5072 18.1549 20.5131 18.1608 20.519C18.1667 20.5249 18.1726 20.5308 18.1785 20.5367C18.1843 20.5426 18.1902 20.5485 18.1961 20.5544C18.202 20.5603 18.2079 20.5662 18.2138 20.5721C18.2359 20.5941 18.2272 20.5855 18.2493 20.6075C18.3711 20.7293 18.1983 20.5566 18.3201 20.6784C18.326 20.6843 18.3319 20.6902 18.3379 20.6961C18.3438 20.702 18.3497 20.7079 18.3556 20.7138C18.3723 20.7305 18.3744 20.7326 18.3911 20.7493C18.397 20.7552 18.4029 20.7611 18.4088 20.767C18.4147 20.773 18.4206 20.7789 18.4265 20.7848C18.4324 20.7907 18.4384 20.7966 18.4443 20.8025C18.4502 20.8084 18.4561 20.8144 18.462 20.8203C18.4967 20.8549 18.4628 20.8211 18.4975 20.8558C18.5057 20.8639 18.5248 20.883 18.533 20.8912C18.6547 21.013 18.5532 20.9115 18.6749 21.0332C18.6809 21.0391 18.6868 21.045 18.6927 21.0509C18.6986 21.0568 18.7045 21.0627 18.7104 21.0687C18.7379 21.0961 18.7184 21.0767 18.7459 21.1041C18.792 21.1502 18.7707 21.1289 18.8168 21.175C18.8308 21.189 18.8382 21.1964 18.8522 21.2104C18.8581 21.2163 18.864 21.2222 18.8699 21.2281C18.8758 21.234 18.8817 21.2399 18.8876 21.2458C19.0062 21.3644 18.8398 21.1981 18.9584 21.3166C19.1581 21.5163 19.0412 21.3995 19.2403 21.5985C19.3576 21.7159 19.6829 22.0411 19.7955 22.1538C19.8557 22.2139 19.8038 22.162 19.8638 22.2221C19.9869 22.3451 19.8089 22.1671 19.9318 22.2901C19.9501 22.3083 19.9814 22.3396 19.9995 22.3577C20.0102 22.3685 20.0562 22.4144 20.0668 22.4251C20.1299 22.4881 20.1379 22.4961 20.2004 22.5587C20.2226 22.5808 20.2447 22.6029 20.2667 22.6249C20.2722 22.6304 20.2777 22.6359 20.2832 22.6414C20.2887 22.6469 20.2942 22.6524 20.2997 22.6579C20.3051 22.6634 20.3106 22.6689 20.3161 22.6744C20.3216 22.6798 20.3271 22.6853 20.3325 22.6908C20.3854 22.7437 20.3124 22.6707 20.3653 22.7235C20.3708 22.729 20.3762 22.7344 20.3816 22.7399C20.3871 22.7453 20.3925 22.7508 20.398 22.7562C20.4392 22.7974 20.3893 22.7476 20.4305 22.7888C20.4359 22.7942 20.4413 22.7996 20.4468 22.805C20.4522 22.8104 20.4576 22.8158 20.463 22.8212C20.4676 22.8258 20.5231 22.8813 20.5275 22.8858C20.5598 22.9181 20.5595 22.9177 20.5916 22.9499C20.6768 23.0351 20.7606 23.1188 20.8431 23.2013L23.7086 20.3357C23.631 20.2581 23.7243 20.3514 23.6465 20.2736C23.6413 20.2685 23.6361 20.2633 23.6309 20.258C23.6257 20.2528 23.6205 20.2476 23.6153 20.2424C23.6101 20.2372 23.6049 20.232 23.5996 20.2267C23.5944 20.2215 23.5892 20.2163 23.5839 20.211C23.452 20.0791 23.6529 20.2801 23.5208 20.1479C23.5155 20.1426 23.5102 20.1373 23.5049 20.132C23.4997 20.1268 23.4944 20.1215 23.4891 20.1162C23.4027 20.0298 23.5436 20.1707 23.4572 20.0843C23.3355 19.9626 23.4508 20.0779 23.3285 19.9556C23.2574 19.8845 23.3349 19.962 23.2635 19.8906C23.1988 19.8259 23.2956 19.9227 23.2309 19.858C23.2254 19.8525 23.22 19.8471 23.2145 19.8416C23.209 19.8361 23.2036 19.8307 23.1981 19.8252C23.1238 19.7509 23.2067 19.8338 23.1323 19.7594C23.0497 19.6768 23.1818 19.8089 23.0992 19.7263C23.0937 19.7208 23.0881 19.7152 23.0826 19.7097C23.0771 19.7042 23.0716 19.6987 23.066 19.6931C23.0034 19.6306 22.9955 19.6226 22.9324 19.5595C22.8853 19.5124 22.9459 19.573 22.8988 19.5259C22.8932 19.5203 22.8875 19.5147 22.8819 19.509C22.8763 19.5034 22.8707 19.4978 22.8651 19.4922C22.8594 19.4865 22.8538 19.4809 22.8482 19.4753C22.8425 19.4696 22.8369 19.464 22.8313 19.4584C22.8256 19.4527 22.82 19.4471 22.8143 19.4414C22.8087 19.4358 22.803 19.4301 22.7974 19.4245C22.7474 19.3745 22.7795 19.4066 22.7294 19.3565C22.7067 19.3338 22.6839 19.311 22.6611 19.2882C22.6084 19.2355 22.6796 19.3067 22.6269 19.254C22.6211 19.2482 22.6154 19.2425 22.6097 19.2368C22.604 19.2311 22.5983 19.2254 22.5925 19.2196C22.5868 19.2139 22.5811 19.2082 22.5753 19.2024C22.5696 19.1967 22.5639 19.191 22.5581 19.1852C22.5524 19.1795 22.5467 19.1738 22.5409 19.168C22.5352 19.1623 22.5294 19.1565 22.5237 19.1508C22.463 19.0901 22.5153 19.1424 22.4546 19.0817C22.3773 19.0044 22.4626 19.0897 22.3852 19.0124C22.269 18.8961 22.3624 18.9895 22.2459 18.873C22.1491 18.7762 22.2728 18.8999 22.176 18.8031C22.1512 18.7783 22.1657 18.7928 22.1409 18.768C22.1351 18.7622 22.1292 18.7563 22.1234 18.7505C22.1175 18.7446 22.1117 18.7388 22.1058 18.7329C22.0824 18.7095 22.059 18.6861 22.0356 18.6627C21.9665 18.5937 22.0342 18.6613 21.9651 18.5922C21.8757 18.5028 21.9841 18.6112 21.8946 18.5217C21.8887 18.5158 21.8828 18.5099 21.8769 18.504C21.871 18.4981 21.8652 18.4923 21.8593 18.4864C21.8324 18.4595 21.8508 18.4779 21.8239 18.451C21.818 18.4451 21.8121 18.4392 21.8062 18.4333C21.8004 18.4275 21.7945 18.4216 21.7886 18.4157C21.7827 18.4098 21.7768 18.4039 21.7709 18.398C21.765 18.3921 21.7591 18.3862 21.7532 18.3803C21.6471 18.2742 21.7884 18.4155 21.6823 18.3094C21.6031 18.2302 21.6198 18.2469 21.5405 18.1676C21.5379 18.165 21.4012 18.0283 21.3986 18.0257C21.3927 18.0198 21.3867 18.0138 21.3808 18.0079C21.3749 18.002 21.369 17.9961 21.3631 17.9902C21.3572 17.9843 21.3512 17.9783 21.3453 17.9724C21.3394 17.9665 21.3335 17.9606 21.3276 17.9547C21.2345 17.8616 21.3497 17.9768 21.2566 17.8837C21.2399 17.8671 21.2378 17.8649 21.2212 17.8483C21.1677 17.7948 21.2392 17.8663 21.1857 17.8128C21.1798 17.8069 21.1739 17.801 21.168 17.7951C21.1621 17.7892 21.1562 17.7833 21.1503 17.7774C21.0644 17.6915 21.2007 17.8278 21.1148 17.7419C21.1133 17.7404 21.081 17.7081 21.0794 17.7065C21.0295 17.6566 21.094 17.7211 21.044 17.6711C20.947 17.5741 21.0703 17.6974 20.9733 17.6004C20.78 17.4071 20.6022 17.2293 20.4124 17.0395C20.3063 16.9334 20.3799 17.007 20.2741 16.9012C20.2506 16.8777 20.1601 16.7872 20.1369 16.764C20.085 16.7121 20.1206 16.7477 20.0687 16.6958C20.063 16.6901 20.0574 16.6845 20.0517 16.6788C20.046 16.6732 20.0404 16.6675 20.0347 16.6618C20.0291 16.6562 20.0234 16.6505 20.0178 16.6449C20.0121 16.6392 20.0065 16.6336 20.0008 16.6279C19.9952 16.6223 19.9895 16.6166 19.9839 16.611C19.9783 16.6054 19.9726 16.5997 19.967 16.5941C19.9621 16.5892 19.9382 16.5653 19.9333 16.5604C19.8136 16.4407 19.9856 16.6127 19.866 16.4931C19.8605 16.4876 19.8549 16.482 19.8493 16.4764C19.8437 16.4708 19.8381 16.4652 19.8326 16.4597C19.827 16.4541 19.8214 16.4485 19.8159 16.443C19.8103 16.4374 19.8047 16.4318 19.7992 16.4263C19.7023 16.3294 19.8295 16.4566 19.7327 16.3598C19.7183 16.3454 19.6809 16.308 19.6666 16.2937C19.5865 16.2136 19.6808 16.3079 19.6009 16.228C19.5954 16.2225 19.59 16.2171 19.5845 16.2116C19.5791 16.2062 19.5736 16.2007 19.5682 16.1953C19.5611 16.1882 19.5426 16.1697 19.5356 16.1627C19.4295 16.0566 19.5767 16.2038 19.4707 16.0978C19.46 16.0871 19.4492 16.0763 19.4385 16.0656C19.4331 16.0602 19.4277 16.0548 19.4224 16.0495C19.417 16.0441 19.4117 16.0388 19.4063 16.0334C19.3636 15.9907 19.417 16.0441 19.3743 16.0014C19.369 15.9961 19.3636 15.9908 19.3583 15.9854C19.353 15.9801 19.3477 15.9748 19.3424 15.9695C19.3003 15.9274 19.2574 15.8845 19.216 15.8431C19.2108 15.8379 19.2055 15.8326 19.2003 15.8274C19.1951 15.8222 19.1899 15.817 19.1847 15.8118C19.1795 15.8066 19.1743 15.8014 19.1691 15.7962C19.1639 15.791 19.1587 15.7858 19.1535 15.7807C19.1484 15.7755 19.1432 15.7703 19.138 15.7651C19.1329 15.76 19.1277 15.7548 19.1225 15.7496C19.1174 15.7445 19.1122 15.7393 19.1071 15.7342C19.1019 15.729 19.0968 15.7239 19.0916 15.7187C18.9723 15.5994 18.9659 15.593 18.8496 15.4767C18.8447 15.4718 18.8398 15.4669 18.8348 15.4619C18.8299 15.457 18.825 15.4521 18.8201 15.4472C18.8151 15.4422 18.8102 15.4373 18.8053 15.4324C18.8004 15.4275 18.7955 15.4226 18.7906 15.4177C18.7203 15.3474 18.8024 15.4295 18.7322 15.3594C18.7307 15.3578 18.7048 15.3319 18.7033 15.3304C18.6985 15.3256 18.6937 15.3208 18.6889 15.316C18.6841 15.3112 18.6793 15.3064 18.6745 15.3016C18.6128 15.2399 18.6789 15.3061 18.6174 15.2445C18.5985 15.2256 18.5797 15.2068 18.561 15.1881C18.5522 15.1793 18.5139 15.141 18.5053 15.1324C18.4069 15.034 18.5485 15.1756 18.4503 15.0774C18.4321 15.0592 18.414 15.0411 18.396 15.0231C18.2545 14.8816 18.1141 14.7412 17.9897 14.6168C17.983 14.6101 17.9019 14.529 17.8964 14.5235C17.876 14.5031 17.894 14.5212 17.8737 14.5008C17.8699 14.497 17.8661 14.4933 17.8624 14.4895C17.8586 14.4857 17.8549 14.482 17.8512 14.4783C17.8491 14.4762 17.8309 14.458 17.8289 14.456C17.7965 14.4236 17.839 14.4661 17.8068 14.4339C17.7637 14.3908 17.828 14.4551 17.785 14.4121C17.6896 14.3167 17.8587 14.4858 17.7634 14.3905C17.7527 14.3798 17.7312 14.3583 17.7209 14.348C17.6929 14.32 17.6655 14.2926 17.6388 14.2659C17.5255 14.1526 17.6728 14.2999 17.5608 14.1879C17.442 14.0691 17.6042 14.2313 17.4868 14.1139C17.4377 14.0648 17.4647 14.0918 17.4171 14.0442C17.4163 14.0434 17.401 14.0281 17.4003 14.0274C17.3948 14.0219 17.3893 14.0164 17.3838 14.0109C17.3715 13.9986 17.3799 14.007 17.3676 13.9947C17.2651 13.8922 17.4541 14.0812 17.3517 13.9788C17.2412 13.8683 17.3389 13.966 17.2346 13.8617C17.1083 13.7354 17.2562 13.8833 17.1364 13.7635C17.0364 13.6635 17.0733 13.7004 17.0013 13.6284C16.9454 13.5725 17.035 13.6621 16.981 13.6081C16.979 13.6061 16.9786 13.6057 16.9768 13.6039C16.9537 13.5808 16.9958 13.6229 16.9729 13.6C16.964 13.5911 16.9748 13.6019 16.9663 13.5934C16.9624 13.5895 16.9594 13.5865 16.9574 13.5845C16.9561 13.5832 16.9573 13.5844 16.9561 13.5832C16.9559 13.583 16.9552 13.5823 16.9552 13.5823C16.955 13.5821 16.9549 13.582 16.9548 13.5819C16.9547 13.5818 16.9547 13.5818 16.9546 13.5817C16.9545 13.5816 16.9545 13.5816 16.9545 13.5816C16.9544 13.5815 16.9544 13.5815 15.5216 15.0143ZM47.8599 50.2182L54.4163 56.7746L57.2819 53.909L50.7255 47.3526L47.8599 50.2182ZM44.4828 46.8411L47.8599 50.2182L50.7255 47.3526L47.3484 43.9755L44.4828 46.8411ZM16.9544 13.5815C16.9544 13.5815 15.5216 15.0143 14.0888 16.4471C14.0888 16.4471 14.0888 16.4471 15.5216 15.0143C16.9544 13.5815 16.9544 13.5815 16.9544 13.5815C15.5216 15.0143 14.0888 16.4471 14.0888 16.4471L16.9544 13.5815ZM58.0732 55.8194C58.0732 55.1029 57.7886 54.4157 57.2819 53.909L54.4163 56.7746C54.163 56.5213 54.0207 56.1777 54.0207 55.8194H58.0732Z" fill="black"/>
</svg>
