<svg width="149" height="71" viewBox="0 0 149 71" fill="none" xmlns="http://www.w3.org/2000/svg">
<path d="M147.635 16.4332C148.427 15.6419 148.427 14.3589 147.635 13.5676L134.74 0.672545C133.949 -0.118761 132.666 -0.118761 131.875 0.672545C131.083 1.46385 131.083 2.74681 131.875 3.53812L143.337 15.0004L131.875 26.4627C131.083 27.254 131.083 28.537 131.875 29.3283C132.666 30.1196 133.949 30.1196 134.74 29.3283L147.635 16.4332ZM21.9248 48.7715L20.492 47.3387L21.9248 48.7715ZM48.9417 21.7546L50.3744 23.1874L50.3744 23.1874L48.9417 21.7546ZM75 17.0267C76.1191 17.0267 77.0263 16.1195 77.0263 15.0004C77.0263 13.8813 76.1191 12.9741 75 12.9741L75 17.0267ZM111.5 12.9741C110.381 12.9741 109.474 13.8813 109.474 15.0004C109.474 16.1195 110.381 17.0267 111.5 17.0267L111.5 12.9741ZM15.1706 55.5257L16.6033 56.9585L16.6033 56.9585L15.1706 55.5257ZM15.1706 55.5257L16.6033 56.9585L15.1706 55.5257ZM3.0949 70.467L16.6033 56.9585L13.7378 54.093L0.229323 67.6014L3.0949 70.467ZM16.6033 56.9585C16.6033 56.9585 20.7199 52.842 23.3576 50.2043L20.492 47.3387C19.1731 48.6576 17.4846 50.3461 16.1257 51.705C14.7669 53.0638 13.7378 54.093 13.7378 54.093L16.6033 56.9585ZM50.3744 23.1874L56.9308 16.631L54.0653 13.7655L47.5089 20.3218L50.3744 23.1874ZM23.3576 50.2043L50.3744 23.1874L47.5089 20.3218L20.492 47.3387L23.3576 50.2043ZM55.9757 17.0267L75 17.0267L75 12.9741L55.9757 12.9741L55.9757 17.0267ZM111.5 17.0267L146.202 17.0267L146.202 12.9741L111.5 12.9741L111.5 17.0267ZM16.6033 56.9585C16.6033 56.9585 16.6033 56.9585 16.6033 56.9585C16.6033 56.9585 16.6033 56.9585 16.6033 56.9585C16.6033 56.9585 16.6033 56.9585 16.6033 56.9585C16.6033 56.9585 16.6033 56.9585 16.6033 56.9585C16.6033 56.9585 16.6033 56.9585 16.6033 56.9585C16.6033 56.9585 16.6033 56.9585 16.6033 56.9585C16.6033 56.9585 16.6033 56.9585 16.6033 56.9585C16.6033 56.9585 16.6033 56.9585 16.6033 56.9585C16.6033 56.9585 16.6033 56.9585 16.6033 56.9585C16.6033 56.9585 16.6033 56.9585 16.6033 56.9585C16.6033 56.9585 16.6033 56.9585 16.6033 56.9585C16.6033 56.9585 16.6033 56.9585 16.6033 56.9585C16.6033 56.9585 16.6033 56.9585 16.6033 56.9585C16.6033 56.9585 16.6033 56.9585 16.6033 56.9585C16.6033 56.9585 16.6033 56.9585 16.6033 56.9585C16.6033 56.9585 16.6033 56.9585 16.6033 56.9585C16.6033 56.9585 16.6033 56.9585 16.6033 56.9585C16.6033 56.9585 16.6033 56.9585 16.6033 56.9585C16.6033 56.9585 16.6033 56.9585 16.6033 56.9585C16.6033 56.9585 16.6033 56.9585 16.6033 56.9585C16.6033 56.9585 16.6033 56.9585 16.6033 56.9585C16.6033 56.9585 16.6033 56.9585 16.6033 56.9585C16.6033 56.9585 16.6033 56.9585 16.6033 56.9585C16.6033 56.9585 16.6033 56.9585 16.6033 56.9585C16.6033 56.9585 16.6033 56.9585 16.6033 56.9585C16.6033 56.9585 16.6033 56.9585 16.6033 56.9585C16.6033 56.9585 16.6033 56.9585 16.6033 56.9585C16.6033 56.9585 16.6033 56.9585 16.6033 56.9585C16.6033 56.9585 16.6033 56.9585 16.6033 56.9585C16.6033 56.9585 16.6033 56.9585 16.6033 56.9585C16.6033 56.9585 16.6033 56.9585 16.6033 56.9585C16.6033 56.9585 16.6033 56.9585 16.6033 56.9585C16.6033 56.9585 16.6033 56.9585 16.6033 56.9585C16.6033 56.9585 16.6033 56.9585 16.6033 56.9585C16.6033 56.9585 16.6033 56.9585 16.6033 56.9585C16.6033 56.9585 16.6033 56.9585 16.6033 56.9585C16.6033 56.9585 16.6033 56.9585 16.6033 56.9585C16.6033 56.9585 16.6033 56.9585 16.6033 56.9585C16.6033 56.9585 16.6033 56.9585 16.6033 56.9585C16.6033 56.9585 16.6033 56.9585 16.6033 56.9585C16.6033 56.9585 16.6033 56.9585 16.6033 56.9585C16.6033 56.9585 16.6033 56.9585 16.6033 56.9585C16.6033 56.9585 16.6033 56.9585 16.6033 56.9585C16.6033 56.9585 16.6033 56.9585 16.6033 56.9585C16.6033 56.9585 16.6033 56.9585 16.6033 56.9585C16.6033 56.9585 16.6033 56.9585 16.6033 56.9585C16.6033 56.9585 16.6033 56.9585 16.6033 56.9585C16.6033 56.9585 16.6033 56.9585 16.6033 56.9585C16.6033 56.9585 16.6033 56.9585 16.6033 56.9585C16.6033 56.9585 16.6033 56.9585 16.6033 56.9585C16.6033 56.9585 16.6033 56.9585 16.6033 56.9585C16.6033 56.9585 16.6033 56.9585 16.6033 56.9585C16.6033 56.9585 16.6033 56.9585 16.6033 56.9585C16.6033 56.9585 16.6033 56.9585 16.6033 56.9585C16.6033 56.9585 16.6033 56.9585 16.6033 56.9585C16.6033 56.9585 16.6033 56.9585 16.6033 56.9585C16.6033 56.9585 16.6033 56.9585 16.6033 56.9585C16.6033 56.9585 16.6033 56.9585 16.6033 56.9585C16.6033 56.9585 16.6033 56.9585 16.6033 56.9585C16.6033 56.9585 16.6033 56.9585 16.6033 56.9585C16.6033 56.9585 16.6033 56.9585 16.6033 56.9585C16.6033 56.9585 16.6033 56.9585 16.6033 56.9585C16.6033 56.9585 16.6033 56.9585 16.6033 56.9585C16.6033 56.9585 16.6033 56.9585 16.6033 56.9585C16.6033 56.9585 16.6033 56.9585 16.6033 56.9585C16.6033 56.9585 16.6033 56.9585 16.6033 56.9585C16.6033 56.9585 16.6033 56.9585 16.6033 56.9585C16.6033 56.9585 16.6033 56.9585 16.6033 56.9585C16.6033 56.9585 16.6033 56.9585 16.6033 56.9585C16.6033 56.9585 16.6033 56.9585 16.6033 56.9585C16.6033 56.9585 16.6033 56.9585 16.6033 56.9585C16.6033 56.9585 16.6033 56.9585 16.6033 56.9585C16.6033 56.9585 16.6033 56.9585 16.6033 56.9585C16.6033 56.9585 16.6033 56.9585 16.6033 56.9585C16.6033 56.9585 16.6033 56.9585 16.6033 56.9585C16.6033 56.9585 16.6033 56.9585 16.6033 56.9585C16.6033 56.9585 16.6033 56.9585 16.6033 56.9585C16.6033 56.9585 16.6033 56.9585 16.6033 56.9585C16.6033 56.9585 16.6033 56.9585 16.6033 56.9585C16.6033 56.9585 16.6033 56.9585 16.6033 56.9585C16.6033 56.9585 16.6033 56.9585 16.6033 56.9585C16.6033 56.9585 16.6033 56.9585 16.6033 56.9585C16.6033 56.9585 16.6033 56.9585 16.6033 56.9585C16.6033 56.9585 16.6033 56.9585 16.6033 56.9585C16.6033 56.9585 16.6033 56.9585 16.6033 56.9585C16.6033 56.9585 16.6033 56.9585 16.6033 56.9585C16.6033 56.9585 16.6033 56.9585 16.6033 56.9585C16.6033 56.9585 16.6033 56.9585 16.6033 56.9585C16.6033 56.9585 16.6033 56.9585 16.6033 56.9585C16.6033 56.9585 16.6033 56.9585 16.6033 56.9585C16.6033 56.9585 16.6033 56.9585 16.6033 56.9585C16.6033 56.9585 16.6033 56.9585 16.6033 56.9585C16.6033 56.9585 16.6033 56.9585 16.6033 56.9585C16.6033 56.9585 16.6033 56.9585 16.6033 56.9585C16.6033 56.9585 16.6033 56.9585 16.6033 56.9585C16.6033 56.9585 16.6033 56.9585 16.6033 56.9585C16.6033 56.9585 16.6033 56.9585 16.6033 56.9585C16.6033 56.9585 16.6033 56.9585 16.6033 56.9585C16.6033 56.9585 16.6033 56.9585 16.6033 56.9585C16.6033 56.9585 16.6033 56.9585 16.6033 56.9585C16.6033 56.9585 16.6033 56.9585 16.6033 56.9585C16.6033 56.9585 16.6033 56.9585 16.6033 56.9585C16.6033 56.9585 16.6033 56.9585 16.6033 56.9585C16.6033 56.9585 16.6033 56.9585 16.6033 56.9585C16.6033 56.9585 16.6033 56.9585 16.6033 56.9585C16.6033 56.9585 16.6033 56.9585 16.6033 56.9585C16.6033 56.9585 16.6033 56.9585 16.6033 56.9585C16.6033 56.9585 16.6033 56.9585 16.6033 56.9585C16.6033 56.9585 13.7378 54.093 13.7378 54.093C13.7378 54.093 13.7378 54.093 13.7378 54.093C13.7378 54.093 13.7378 54.093 13.7378 54.093C13.7378 54.093 13.7378 54.093 13.7378 54.093C13.7378 54.093 13.7378 54.093 13.7378 54.093C13.7378 54.093 13.7378 54.093 13.7378 54.093C13.7378 54.093 13.7378 54.093 13.7378 54.093C13.7378 54.093 13.7378 54.093 13.7378 54.093C13.7378 54.093 13.7378 54.093 13.7378 54.093C13.7378 54.093 13.7378 54.093 13.7378 54.093C13.7378 54.093 13.7378 54.093 13.7378 54.093C13.7378 54.093 13.7378 54.093 13.7378 54.093C13.7378 54.093 13.7378 54.093 13.7378 54.093C13.7378 54.093 13.7378 54.093 13.7378 54.093C13.7378 54.093 13.7378 54.093 13.7378 54.093C13.7378 54.093 13.7378 54.093 13.7378 54.093C13.7378 54.093 13.7378 54.093 13.7378 54.093C13.7378 54.093 13.7378 54.093 13.7378 54.093C13.7378 54.093 13.7378 54.093 13.7378 54.093C13.7378 54.093 13.7378 54.093 13.7378 54.093C13.7378 54.093 13.7378 54.093 13.7378 54.093C13.7378 54.093 13.7378 54.093 13.7378 54.093C13.7378 54.093 13.7378 54.093 13.7378 54.093C13.7378 54.093 13.7378 54.093 13.7378 54.093C13.7378 54.093 13.7378 54.093 13.7378 54.093C13.7378 54.093 13.7378 54.093 13.7378 54.093C13.7378 54.093 13.7378 54.093 13.7378 54.093C13.7378 54.093 13.7378 54.093 13.7378 54.093C13.7378 54.093 13.7378 54.093 13.7378 54.093C13.7378 54.093 13.7378 54.093 13.7378 54.093C13.7378 54.093 13.7378 54.093 13.7378 54.093C13.7378 54.093 13.7378 54.093 13.7378 54.093C13.7378 54.093 13.7378 54.093 13.7378 54.093C13.7378 54.093 13.7378 54.093 13.7378 54.093C13.7378 54.093 13.7378 54.093 13.7378 54.093C13.7378 54.093 13.7378 54.093 13.7378 54.093C13.7378 54.093 13.7378 54.093 13.7378 54.093C13.7378 54.093 13.7378 54.093 13.7378 54.093C13.7378 54.093 13.7378 54.093 13.7378 54.093C13.7378 54.093 13.7378 54.093 13.7378 54.093C13.7378 54.093 13.7378 54.093 13.7378 54.093C13.7378 54.093 13.7378 54.093 13.7378 54.093C13.7378 54.093 13.7378 54.093 13.7378 54.093C13.7378 54.093 13.7378 54.093 13.7378 54.093C13.7378 54.093 13.7378 54.093 13.7378 54.093C13.7378 54.093 13.7378 54.093 13.7378 54.093C13.7378 54.093 13.7378 54.093 13.7378 54.093C13.7378 54.093 13.7378 54.093 13.7378 54.093C13.7378 54.093 13.7378 54.093 13.7378 54.093C13.7378 54.093 13.7378 54.093 13.7378 54.093C13.7378 54.093 13.7378 54.093 13.7378 54.093C13.7378 54.093 13.7378 54.093 13.7378 54.093C13.7378 54.093 13.7378 54.093 13.7378 54.093C13.7378 54.093 13.7378 54.093 13.7378 54.093C13.7378 54.093 13.7378 54.093 13.7378 54.093C13.7378 54.093 13.7378 54.093 13.7378 54.093C13.7378 54.093 13.7378 54.093 13.7378 54.093C13.7378 54.093 13.7378 54.093 13.7378 54.093C13.7378 54.093 13.7378 54.093 13.7378 54.093C13.7378 54.093 13.7378 54.093 13.7378 54.093C13.7378 54.093 13.7378 54.093 13.7378 54.093C13.7378 54.093 13.7378 54.093 13.7378 54.093C13.7378 54.093 13.7378 54.093 13.7378 54.093C13.7378 54.093 13.7378 54.093 13.7378 54.093C13.7378 54.093 13.7378 54.093 13.7378 54.093C13.7378 54.093 13.7378 54.093 13.7378 54.093C13.7378 54.093 13.7378 54.093 13.7378 54.093C13.7378 54.093 13.7378 54.093 13.7378 54.093C13.7378 54.093 13.7378 54.093 13.7378 54.093C13.7378 54.093 13.7378 54.093 13.7378 54.093C13.7378 54.093 13.7378 54.093 13.7378 54.093C13.7378 54.093 13.7378 54.093 13.7378 54.093C13.7378 54.093 13.7378 54.093 13.7378 54.093C13.7378 54.093 13.7378 54.093 13.7378 54.093C13.7378 54.093 13.7378 54.093 13.7378 54.093C13.7378 54.093 13.7378 54.093 13.7378 54.093C13.7378 54.093 13.7378 54.093 13.7378 54.093C13.7378 54.093 13.7378 54.093 13.7378 54.093C13.7378 54.093 13.7378 54.093 13.7378 54.093C13.7378 54.093 13.7378 54.093 13.7378 54.093C13.7378 54.093 13.7378 54.093 13.7378 54.093C13.7378 54.093 13.7378 54.093 13.7378 54.093C13.7378 54.093 13.7378 54.093 13.7378 54.093C13.7378 54.093 13.7378 54.093 13.7378 54.093C13.7378 54.093 13.7378 54.093 13.7378 54.093C13.7378 54.093 13.7378 54.093 13.7378 54.093C13.7378 54.093 13.7378 54.093 13.7378 54.093C13.7378 54.093 13.7378 54.093 13.7378 54.093C13.7378 54.093 13.7378 54.093 13.7378 54.093C13.7378 54.093 13.7378 54.093 13.7378 54.093C13.7378 54.093 13.7378 54.093 13.7378 54.093C13.7378 54.093 13.7378 54.093 13.7378 54.093C13.7378 54.093 13.7378 54.093 13.7378 54.093C13.7378 54.093 13.7378 54.093 13.7378 54.093C13.7378 54.093 13.7378 54.093 13.7378 54.093C13.7378 54.093 13.7378 54.093 13.7378 54.093C13.7378 54.093 13.7378 54.093 13.7378 54.093C13.7378 54.093 13.7378 54.093 13.7378 54.093C13.7378 54.093 13.7378 54.093 13.7378 54.093C13.7378 54.093 13.7378 54.093 13.7378 54.093C13.7378 54.093 13.7378 54.093 13.7378 54.093C13.7378 54.093 13.7378 54.093 13.7378 54.093C13.7378 54.093 13.7378 54.093 13.7378 54.093C13.7378 54.093 13.7378 54.093 13.7378 54.093C13.7378 54.093 13.7378 54.093 13.7378 54.093C13.7378 54.093 13.7378 54.093 13.7378 54.093C13.7378 54.093 13.7378 54.093 13.7378 54.093C13.7378 54.093 13.7378 54.093 13.7378 54.093C13.7378 54.093 13.7378 54.093 13.7378 54.093C13.7378 54.093 13.7378 54.093 13.7378 54.093C13.7378 54.093 13.7378 54.093 13.7378 54.093C13.7378 54.093 13.7378 54.093 13.7378 54.093C13.7378 54.093 13.7378 54.093 13.7378 54.093C13.7378 54.093 13.7378 54.093 13.7378 54.093C13.7378 54.093 13.7378 54.093 13.7378 54.093C13.7378 54.093 13.7378 54.093 13.7378 54.093C13.7378 54.093 13.7378 54.093 13.7378 54.093C13.7378 54.093 13.7378 54.093 13.7378 54.093C13.7378 54.093 13.7378 54.093 13.7378 54.093C13.7378 54.093 13.7378 54.093 13.7378 54.093C13.7378 54.093 13.7378 54.093 13.7378 54.093C13.7378 54.093 13.7378 54.093 13.7378 54.093C13.7378 54.093 13.7378 54.093 13.7378 54.093C13.7378 54.093 13.7378 54.093 13.7378 54.093C13.7378 54.093 13.7378 54.093 13.7378 54.093C13.7378 54.093 13.7378 54.093 13.7378 54.093C13.7378 54.093 13.7378 54.093 13.7378 54.093C13.7378 54.093 13.7378 54.093 13.7378 54.093C13.7378 54.093 13.7378 54.093 13.7378 54.093C13.7378 54.093 13.7378 54.093 13.7378 54.093C13.7378 54.093 13.7378 54.093 13.7378 54.093C13.7378 54.093 13.7378 54.093 13.7378 54.093C13.7378 54.093 13.7378 54.093 13.7378 54.093C13.7378 54.093 13.7378 54.093 13.7378 54.093C13.7378 54.093 13.7378 54.093 13.7378 54.093C13.7378 54.093 13.7378 54.093 13.7378 54.093C13.7378 54.093 13.7378 54.093 13.7378 54.093C13.7378 54.093 13.7378 54.093 13.7378 54.093C13.7378 54.093 13.7378 54.093 13.7378 54.093C13.7378 54.093 13.7378 54.093 13.7378 54.093C13.7378 54.093 13.7378 54.093 13.7378 54.093C13.7378 54.093 13.7378 54.093 13.7378 54.093C13.7378 54.093 13.7378 54.093 13.7378 54.093C13.7378 54.093 13.7378 54.093 13.7378 54.093C13.7378 54.093 13.7378 54.093 13.7378 54.093C13.7378 54.093 13.7378 54.093 13.7378 54.093C13.7378 54.093 13.7378 54.093 13.7378 54.093C13.7378 54.093 13.7378 54.093 13.7378 54.093C13.7378 54.093 13.7378 54.093 13.7378 54.093C13.7378 54.093 13.7378 54.093 13.7378 54.093C13.7378 54.093 13.7378 54.093 13.7378 54.093C13.7378 54.093 13.7378 54.093 13.7378 54.093C13.7378 54.093 13.7378 54.093 13.7378 54.093C13.7378 54.093 13.7378 54.093 13.7378 54.093C13.7378 54.093 13.7378 54.093 13.7378 54.093C13.7378 54.093 13.7378 54.093 13.7378 54.093C13.7378 54.093 13.7378 54.093 13.7378 54.093C13.7378 54.093 13.7378 54.093 13.7378 54.093C13.7378 54.093 13.7378 54.093 13.7378 54.093C13.7378 54.093 13.7378 54.093 13.7378 54.093C13.7378 54.093 13.7378 54.093 13.7378 54.093C13.7378 54.093 13.7378 54.093 13.7378 54.093C13.7378 54.093 13.7378 54.093 13.7378 54.093C13.7378 54.093 13.7378 54.093 13.7378 54.093C13.7378 54.093 13.7378 54.093 13.7378 54.093C13.7378 54.093 13.7378 54.093 13.7378 54.093C13.7378 54.093 13.7378 54.093 13.7378 54.093C13.7378 54.093 13.7378 54.093 13.7378 54.093C13.7378 54.093 13.7378 54.093 13.7378 54.093C13.7378 54.093 13.7378 54.093 13.7378 54.093C13.7378 54.093 13.7378 54.093 13.7378 54.093C13.7378 54.093 13.7378 54.093 13.7378 54.093C13.7378 54.093 13.7378 54.093 13.7378 54.093C13.7378 54.093 13.7378 54.093 13.7378 54.093C13.7378 54.093 13.7378 54.093 13.7378 54.093C13.7378 54.093 13.7378 54.093 13.7378 54.093C13.7378 54.093 13.7378 54.093 13.7378 54.093C13.7378 54.093 13.7378 54.093 13.7378 54.093C13.7378 54.093 13.7378 54.093 13.7378 54.093C13.7378 54.093 13.7378 54.093 13.7378 54.093C13.7378 54.093 13.7378 54.093 13.7378 54.093C13.7378 54.093 13.7378 54.093 13.7378 54.093C13.7378 54.093 13.7378 54.093 13.7378 54.093C13.7378 54.093 13.7378 54.093 13.7378 54.093C13.7378 54.093 13.7378 54.093 13.7378 54.093C13.7378 54.093 13.7378 54.093 13.7378 54.093C13.7378 54.093 13.7378 54.093 13.7378 54.093C13.7378 54.093 13.7378 54.093 13.7378 54.093C13.7378 54.093 13.7378 54.093 13.7378 54.093C13.7378 54.093 13.7378 54.093 13.7378 54.093C13.7378 54.093 13.7378 54.093 13.7378 54.093C13.7378 54.093 13.7378 54.093 13.7378 54.093C13.7378 54.093 13.7378 54.093 13.7378 54.093C13.7378 54.093 13.7378 54.093 13.7378 54.093C13.7378 54.093 13.7378 54.093 13.7378 54.093C13.7378 54.093 13.7378 54.093 13.7378 54.093C13.7378 54.093 13.7378 54.093 13.7378 54.093C13.7378 54.093 13.7378 54.093 13.7378 54.093C13.7378 54.093 13.7378 54.093 13.7378 54.093C13.7378 54.093 13.7378 54.093 13.7378 54.093C13.7378 54.093 13.7378 54.093 13.7378 54.093C13.7378 54.093 13.7378 54.093 13.7378 54.093C13.7378 54.093 13.7378 54.093 13.7378 54.093C13.7378 54.093 13.7378 54.093 13.7378 54.093C13.7378 54.093 13.7378 54.093 13.7378 54.093C13.7378 54.093 13.7378 54.093 13.7378 54.093C13.7378 54.093 13.7378 54.093 13.7378 54.093C13.7378 54.093 13.7378 54.093 13.7378 54.093C13.7378 54.093 13.7378 54.093 13.7378 54.093C13.7378 54.093 13.7378 54.093 13.7378 54.093C13.7378 54.093 13.7378 54.093 13.7378 54.093C13.7378 54.093 13.7378 54.093 13.7378 54.093C13.7378 54.093 13.7378 54.093 13.7378 54.093C13.7378 54.093 13.7378 54.093 13.7378 54.093C13.7378 54.093 13.7378 54.093 13.7378 54.093C13.7378 54.093 13.7378 54.093 13.7378 54.093C13.7378 54.093 13.7378 54.093 13.7378 54.093C13.7378 54.093 13.7378 54.093 13.7378 54.093C13.7378 54.093 13.7378 54.093 13.7378 54.093C13.7378 54.093 13.7378 54.093 13.7378 54.093C13.7378 54.093 13.7378 54.093 13.7378 54.093C13.7378 54.093 13.7378 54.093 13.7378 54.093C13.7378 54.093 13.7378 54.093 13.7378 54.093C13.7378 54.093 13.7378 54.093 13.7378 54.093C13.7378 54.093 13.7378 54.093 13.7378 54.093C13.7378 54.093 13.7378 54.093 13.7378 54.093C13.7378 54.093 13.7378 54.093 13.7378 54.093C13.7378 54.093 13.7378 54.093 13.7378 54.093C13.7378 54.093 13.7378 54.093 13.7378 54.093C13.7378 54.093 13.7378 54.093 13.7378 54.093C13.7378 54.093 13.7378 54.093 13.7378 54.093C13.7378 54.093 13.7378 54.093 13.7378 54.093C13.7378 54.093 13.7378 54.093 13.7378 54.093C13.7378 54.093 13.7378 54.093 13.7378 54.093C13.7378 54.093 13.7378 54.093 13.7378 54.093C13.7378 54.093 13.7378 54.093 13.7378 54.093C13.7378 54.093 13.7378 54.093 13.7378 54.093C13.7378 54.093 13.7378 54.093 13.7378 54.093C13.7378 54.093 13.7378 54.093 13.7378 54.093C13.7378 54.093 13.7378 54.093 13.7378 54.093C13.7378 54.093 13.7378 54.093 13.7378 54.093C13.7378 54.093 13.7378 54.093 13.7378 54.093C13.7378 54.093 13.7378 54.093 13.7378 54.093C13.7378 54.093 13.7378 54.093 13.7378 54.093C13.7378 54.093 13.7378 54.093 13.7378 54.093C13.7378 54.093 13.7378 54.093 13.7378 54.093C13.7378 54.093 13.7378 54.093 13.7378 54.093C13.7378 54.093 13.7378 54.093 13.7378 54.093C13.7378 54.093 13.7378 54.093 13.7378 54.093C13.7378 54.093 13.7378 54.093 13.7378 54.093C13.7378 54.093 13.7378 54.093 13.7378 54.093C13.7378 54.093 13.7378 54.093 13.7378 54.093C13.7378 54.093 13.7378 54.093 13.7378 54.093C13.7378 54.093 13.7378 54.093 13.7378 54.093C13.7378 54.093 13.7378 54.093 13.7378 54.093C13.7378 54.093 13.7378 54.093 13.7378 54.093C13.7378 54.093 13.7378 54.093 13.7378 54.093C13.7378 54.093 13.7378 54.093 13.7378 54.093C13.7378 54.093 13.7378 54.093 13.7378 54.093C13.7378 54.093 13.7378 54.093 13.7378 54.093C13.7378 54.093 13.7378 54.093 13.7378 54.093C13.7378 54.093 13.7378 54.093 13.7378 54.093C13.7378 54.093 13.7378 54.093 13.7378 54.093C13.7378 54.093 13.7378 54.093 13.7378 54.093C13.7378 54.093 13.7378 54.093 13.7378 54.093C13.7378 54.093 13.7378 54.093 13.7378 54.093C13.7378 54.093 13.7378 54.093 13.7378 54.093C13.7378 54.093 13.7378 54.093 13.7378 54.093C13.7378 54.093 13.7378 54.093 13.7378 54.093C13.7378 54.093 13.7378 54.093 13.7378 54.093C13.7378 54.093 13.7378 54.093 13.7378 54.093C13.7378 54.093 13.7378 54.093 13.7378 54.093C13.7378 54.093 13.7378 54.093 13.7378 54.093C13.7378 54.093 13.7378 54.093 13.7378 54.093C13.7378 54.093 13.7378 54.093 13.7378 54.093C13.7378 54.093 13.7378 54.093 13.7378 54.093C13.7378 54.093 13.7378 54.093 13.7378 54.093C13.7378 54.093 13.7378 54.093 13.7378 54.093C13.7378 54.093 13.7378 54.093 13.7378 54.093C13.7378 54.093 13.7378 54.093 13.7378 54.093C13.7378 54.093 13.7378 54.093 13.7378 54.093C13.7378 54.093 13.7378 54.093 13.7378 54.093C13.7378 54.093 13.7378 54.093 13.7378 54.093C13.7378 54.093 13.7378 54.093 13.7378 54.093C13.7378 54.093 13.7378 54.093 13.7378 54.093C13.7378 54.093 13.7378 54.093 13.7378 54.093C13.7378 54.093 13.7378 54.093 13.7378 54.093C13.7378 54.093 13.7378 54.093 13.7378 54.093C13.7378 54.093 13.7378 54.093 13.7378 54.093C13.7378 54.093 13.7378 54.093 13.7378 54.093C13.7378 54.093 13.7378 54.093 13.7378 54.093C13.7378 54.093 13.7378 54.093 13.7378 54.093C13.7378 54.093 13.7378 54.093 13.7378 54.093C13.7378 54.093 13.7378 54.093 13.7378 54.093C13.7378 54.093 13.7378 54.093 13.7378 54.093C13.7378 54.093 16.6033 56.9585 16.6033 56.9585C16.6033 56.9585 16.6033 56.9585 16.6033 56.9585C16.6033 56.9585 16.6033 56.9585 16.6033 56.9585C16.6033 56.9585 16.6033 56.9585 16.6033 56.9585C16.6033 56.9585 16.6033 56.9585 16.6033 56.9585C16.6033 56.9585 16.6033 56.9585 16.6033 56.9585C16.6033 56.9585 16.6033 56.9585 16.6033 56.9585C16.6033 56.9585 16.6033 56.9585 16.6033 56.9585C16.6033 56.9585 16.6033 56.9585 16.6033 56.9585C16.6033 56.9585 16.6033 56.9585 16.6033 56.9585C16.6033 56.9585 16.6033 56.9585 16.6033 56.9585C16.6033 56.9585 16.6033 56.9585 16.6033 56.9585C16.6033 56.9585 16.6033 56.9585 16.6033 56.9585C16.6033 56.9585 16.6033 56.9585 16.6033 56.9585C16.6033 56.9585 16.6033 56.9585 16.6033 56.9585C16.6033 56.9585 16.6033 56.9585 16.6033 56.9585C16.6033 56.9585 16.6033 56.9585 16.6033 56.9585C16.6033 56.9585 16.6033 56.9585 16.6033 56.9585C16.6033 56.9585 16.6033 56.9585 16.6033 56.9585C16.6033 56.9585 16.6033 56.9585 16.6033 56.9585C16.6033 56.9585 16.6033 56.9585 16.6033 56.9585C16.6033 56.9585 16.6033 56.9585 16.6033 56.9585C16.6033 56.9585 16.6033 56.9585 16.6033 56.9585C16.6033 56.9585 16.6033 56.9585 16.6033 56.9585C16.6033 56.9585 16.6033 56.9585 16.6033 56.9585C16.6033 56.9585 16.6033 56.9585 16.6033 56.9585C16.6033 56.9585 16.6033 56.9585 16.6033 56.9585C16.6033 56.9585 16.6033 56.9585 16.6033 56.9585C16.6033 56.9585 16.6033 56.9585 16.6033 56.9585C16.6033 56.9585 16.6033 56.9585 16.6033 56.9585C16.6033 56.9585 16.6033 56.9585 16.6033 56.9585C16.6033 56.9585 16.6033 56.9585 16.6033 56.9585C16.6033 56.9585 16.6033 56.9585 16.6033 56.9585C16.6033 56.9585 16.6033 56.9585 16.6033 56.9585C16.6033 56.9585 16.6033 56.9585 16.6033 56.9585C16.6033 56.9585 16.6033 56.9585 16.6033 56.9585C16.6033 56.9585 16.6033 56.9585 16.6033 56.9585C16.6033 56.9585 16.6033 56.9585 16.6033 56.9585C16.6033 56.9585 16.6033 56.9585 16.6033 56.9585C16.6033 56.9585 16.6033 56.9585 16.6033 56.9585C16.6033 56.9585 16.6033 56.9585 16.6033 56.9585C16.6033 56.9585 16.6033 56.9585 16.6033 56.9585C16.6033 56.9585 16.6033 56.9585 16.6033 56.9585C16.6033 56.9585 16.6033 56.9585 16.6033 56.9585C16.6033 56.9585 16.6033 56.9585 16.6033 56.9585C16.6033 56.9585 16.6033 56.9585 16.6033 56.9585C16.6033 56.9585 16.6033 56.9585 16.6033 56.9585C16.6033 56.9585 16.6033 56.9585 16.6033 56.9585C16.6033 56.9585 16.6033 56.9585 16.6033 56.9585C16.6033 56.9585 16.6033 56.9585 16.6033 56.9585C16.6033 56.9585 16.6033 56.9585 16.6033 56.9585C16.6033 56.9585 16.6033 56.9585 16.6033 56.9585C16.6033 56.9585 16.6033 56.9585 16.6033 56.9585C16.6033 56.9585 16.6033 56.9585 16.6033 56.9585C16.6033 56.9585 16.6033 56.9585 16.6033 56.9585C16.6033 56.9585 16.6033 56.9585 16.6033 56.9585C16.6033 56.9585 16.6033 56.9585 16.6033 56.9585C16.6033 56.9585 16.6033 56.9585 16.6033 56.9585C16.6033 56.9585 16.6033 56.9585 16.6033 56.9585C16.6033 56.9585 16.6033 56.9585 16.6033 56.9585C16.6033 56.9585 16.6033 56.9585 16.6033 56.9585C16.6033 56.9585 16.6033 56.9585 16.6033 56.9585C16.6033 56.9585 16.6033 56.9585 16.6033 56.9585C16.6033 56.9585 16.6033 56.9585 16.6033 56.9585C16.6033 56.9585 16.6033 56.9585 16.6033 56.9585C16.6033 56.9585 16.6033 56.9585 16.6033 56.9585C16.6033 56.9585 16.6033 56.9585 16.6033 56.9585C16.6033 56.9585 16.6033 56.9585 16.6033 56.9585C16.6033 56.9585 16.6033 56.9585 16.6033 56.9585C16.6033 56.9585 16.6033 56.9585 16.6033 56.9585C16.6033 56.9585 16.6033 56.9585 16.6033 56.9585C16.6033 56.9585 16.6033 56.9585 16.6033 56.9585C16.6033 56.9585 16.6033 56.9585 16.6033 56.9585C16.6033 56.9585 16.6033 56.9585 16.6033 56.9585C16.6033 56.9585 16.6033 56.9585 16.6033 56.9585C16.6033 56.9585 16.6033 56.9585 16.6033 56.9585C16.6033 56.9585 16.6033 56.9585 16.6033 56.9585C16.6033 56.9585 16.6033 56.9585 16.6033 56.9585C16.6033 56.9585 16.6033 56.9585 16.6033 56.9585C16.6033 56.9585 16.6033 56.9585 16.6033 56.9585C16.6033 56.9585 16.6033 56.9585 16.6033 56.9585C16.6033 56.9585 16.6033 56.9585 16.6033 56.9585C16.6033 56.9585 16.6033 56.9585 16.6033 56.9585C16.6033 56.9585 16.6033 56.9585 16.6033 56.9585C16.6033 56.9585 16.6033 56.9585 16.6033 56.9585C16.6033 56.9585 16.6033 56.9585 16.6033 56.9585C16.6033 56.9585 16.6033 56.9585 16.6033 56.9585C16.6033 56.9585 16.6033 56.9585 16.6033 56.9585C16.6033 56.9585 16.6033 56.9585 16.6033 56.9585C16.6033 56.9585 16.6033 56.9585 16.6033 56.9585C16.6033 56.9585 16.6033 56.9585 16.6033 56.9585C16.6033 56.9585 16.6033 56.9585 16.6033 56.9585C16.6033 56.9585 16.6033 56.9585 16.6033 56.9585C16.6033 56.9585 16.6033 56.9585 16.6033 56.9585C16.6033 56.9585 16.6033 56.9585 16.6033 56.9585C16.6033 56.9585 16.6033 56.9585 16.6033 56.9585C16.6033 56.9585 16.6033 56.9585 16.6033 56.9585C16.6033 56.9585 16.6033 56.9585 16.6033 56.9585C16.6033 56.9585 16.6033 56.9585 16.6033 56.9585C16.6033 56.9585 16.6033 56.9585 16.6033 56.9585C16.6033 56.9585 16.6033 56.9585 16.6033 56.9585C16.6033 56.9585 16.6033 56.9585 16.6033 56.9585C16.6033 56.9585 16.6033 56.9585 16.6033 56.9585C16.6033 56.9585 16.6033 56.9585 16.6033 56.9585C16.6033 56.9585 16.6033 56.9585 16.6033 56.9585C16.6033 56.9585 16.6033 56.9585 16.6033 56.9585C16.6033 56.9585 16.6033 56.9585 16.6033 56.9585C16.6033 56.9585 16.6033 56.9585 16.6033 56.9585C16.6033 56.9585 16.6033 56.9585 16.6033 56.9585L13.7378 54.093C13.7378 54.093 13.7378 54.093 13.7378 54.093C13.7378 54.093 13.7378 54.093 13.7378 54.093C13.7378 54.093 13.7378 54.093 13.7378 54.093C13.7378 54.093 13.7378 54.093 13.7378 54.093C13.7378 54.093 13.7378 54.093 13.7378 54.093C13.7378 54.093 13.7378 54.093 13.7378 54.093C13.7378 54.093 13.7378 54.093 13.7378 54.093C13.7378 54.093 13.7378 54.093 13.7378 54.093C13.7378 54.093 13.7378 54.093 13.7378 54.093C13.7378 54.093 13.7378 54.093 13.7378 54.093C13.7378 54.093 13.7378 54.093 13.7378 54.093C13.7378 54.093 13.7378 54.093 13.7378 54.093C13.7378 54.093 13.7378 54.093 13.7378 54.093C13.7378 54.093 13.7378 54.093 13.7378 54.093C13.7378 54.093 13.7378 54.093 13.7378 54.093C13.7378 54.093 13.7378 54.093 13.7378 54.093C13.7378 54.093 13.7378 54.093 13.7378 54.093C13.7378 54.093 13.7378 54.093 13.7378 54.093C13.7378 54.093 13.7378 54.093 13.7378 54.093C13.7378 54.093 13.7378 54.093 13.7378 54.093C13.7378 54.093 13.7378 54.093 13.7378 54.093C13.7378 54.093 13.7378 54.093 13.7378 54.093C13.7378 54.093 13.7378 54.093 13.7378 54.093C13.7378 54.093 13.7378 54.093 13.7378 54.093C13.7378 54.093 13.7378 54.093 13.7378 54.093C13.7378 54.093 13.7378 54.093 13.7378 54.093C13.7378 54.093 13.7378 54.093 13.7378 54.093C13.7378 54.093 13.7378 54.093 13.7378 54.093C13.7378 54.093 13.7378 54.093 13.7378 54.093C13.7378 54.093 13.7378 54.093 13.7378 54.093C13.7378 54.093 13.7378 54.093 13.7378 54.093C13.7378 54.093 13.7378 54.093 13.7378 54.093C13.7378 54.093 13.7378 54.093 13.7378 54.093C13.7378 54.093 13.7378 54.093 13.7378 54.093C13.7378 54.093 13.7378 54.093 13.7378 54.093C13.7378 54.093 13.7378 54.093 13.7378 54.093C13.7378 54.093 13.7378 54.093 13.7378 54.093C13.7378 54.093 13.7378 54.093 13.7378 54.093C13.7378 54.093 13.7378 54.093 13.7378 54.093C13.7378 54.093 13.7378 54.093 13.7378 54.093C13.7378 54.093 13.7378 54.093 13.7378 54.093C13.7378 54.093 13.7378 54.093 13.7378 54.093C13.7378 54.093 13.7378 54.093 13.7378 54.093C13.7378 54.093 13.7378 54.093 13.7378 54.093C13.7378 54.093 13.7378 54.093 13.7378 54.093C13.7378 54.093 13.7378 54.093 13.7378 54.093C13.7378 54.093 13.7378 54.093 13.7378 54.093C13.7378 54.093 13.7378 54.093 13.7378 54.093C13.7378 54.093 13.7378 54.093 13.7378 54.093C13.7378 54.093 13.7378 54.093 13.7378 54.093C13.7378 54.093 13.7378 54.093 13.7378 54.093C13.7378 54.093 13.7378 54.093 13.7378 54.093C13.7378 54.093 13.7378 54.093 13.7378 54.093C13.7378 54.093 13.7378 54.093 13.7378 54.093C13.7378 54.093 13.7378 54.093 13.7378 54.093C13.7378 54.093 13.7378 54.093 13.7378 54.093C13.7378 54.093 13.7378 54.093 13.7378 54.093C13.7378 54.093 13.7378 54.093 13.7378 54.093C13.7378 54.093 13.7378 54.093 13.7378 54.093C13.7378 54.093 13.7378 54.093 13.7378 54.093C13.7378 54.093 13.7378 54.093 13.7378 54.093C13.7378 54.093 13.7378 54.093 13.7378 54.093C13.7378 54.093 13.7378 54.093 13.7378 54.093C13.7378 54.093 13.7378 54.093 13.7378 54.093C13.7378 54.093 13.7378 54.093 13.7378 54.093C13.7378 54.093 13.7378 54.093 13.7378 54.093C13.7378 54.093 13.7378 54.093 13.7378 54.093C13.7378 54.093 13.7378 54.093 13.7378 54.093C13.7378 54.093 13.7378 54.093 13.7378 54.093C13.7378 54.093 13.7378 54.093 13.7378 54.093C13.7378 54.093 13.7378 54.093 13.7378 54.093C13.7378 54.093 13.7378 54.093 13.7378 54.093C13.7378 54.093 13.7378 54.093 13.7378 54.093C13.7378 54.093 13.7378 54.093 13.7378 54.093C13.7378 54.093 13.7378 54.093 13.7378 54.093C13.7378 54.093 13.7378 54.093 13.7378 54.093C13.7378 54.093 13.7378 54.093 13.7378 54.093C13.7378 54.093 13.7378 54.093 13.7378 54.093C13.7378 54.093 13.7378 54.093 13.7378 54.093C13.7378 54.093 13.7378 54.093 13.7378 54.093C13.7378 54.093 13.7378 54.093 13.7378 54.093C13.7378 54.093 13.7378 54.093 13.7378 54.093C13.7378 54.093 13.7378 54.093 13.7378 54.093C13.7378 54.093 13.7378 54.093 13.7378 54.093C13.7378 54.093 13.7378 54.093 13.7378 54.093C13.7378 54.093 13.7378 54.093 13.7378 54.093C13.7378 54.093 13.7378 54.093 13.7378 54.093C13.7378 54.093 13.7378 54.093 13.7378 54.093C13.7378 54.093 13.7378 54.093 13.7378 54.093C13.7378 54.093 13.7378 54.093 13.7378 54.093C13.7378 54.093 13.7378 54.093 13.7378 54.093C13.7378 54.093 13.7378 54.093 13.7378 54.093C13.7378 54.093 13.7378 54.093 13.7378 54.093C13.7378 54.093 13.7378 54.093 13.7378 54.093C13.7378 54.093 13.7378 54.093 13.7378 54.093C13.7378 54.093 13.7378 54.093 13.7378 54.093C13.7378 54.093 13.7378 54.093 13.7378 54.093C13.7378 54.093 13.7378 54.093 13.7378 54.093C13.7378 54.093 13.7378 54.093 13.7378 54.093C13.7378 54.093 13.7378 54.093 13.7378 54.093C13.7378 54.093 13.7378 54.093 13.7378 54.093C13.7378 54.093 13.7378 54.093 13.7378 54.093C13.7378 54.093 13.7378 54.093 13.7378 54.093C13.7378 54.093 13.7378 54.093 13.7378 54.093C13.7378 54.093 13.7378 54.093 13.7378 54.093C13.7378 54.093 13.7378 54.093 13.7378 54.093C13.7378 54.093 13.7378 54.093 13.7378 54.093C13.7378 54.093 13.7378 54.093 13.7378 54.093C13.7378 54.093 16.6033 56.9585 16.6033 56.9585C16.6033 56.9585 16.6033 56.9585 16.6033 56.9585C16.6033 56.9585 16.6033 56.9585 16.6033 56.9585C16.6033 56.9585 16.6033 56.9585 16.6033 56.9585C16.6033 56.9585 16.6033 56.9585 16.6033 56.9585C16.6033 56.9585 16.6033 56.9585 16.6033 56.9585C16.6033 56.9585 16.6033 56.9585 16.6033 56.9585C16.6033 56.9585 16.6033 56.9585 16.6033 56.9585C16.6033 56.9585 16.6033 56.9585 16.6033 56.9585C16.6033 56.9585 16.6033 56.9585 16.6033 56.9585C16.6033 56.9585 16.6033 56.9585 16.6033 56.9585C16.6033 56.9585 16.6033 56.9585 16.6033 56.9585C16.6033 56.9585 16.6033 56.9585 16.6033 56.9585C16.6033 56.9585 16.6033 56.9585 16.6033 56.9585C16.6033 56.9585 16.6033 56.9585 16.6033 56.9585C16.6033 56.9585 16.6033 56.9585 16.6033 56.9585C16.6033 56.9585 16.6033 56.9585 16.6033 56.9585C16.6033 56.9585 16.6033 56.9585 16.6033 56.9585C16.6033 56.9585 16.6033 56.9585 16.6033 56.9585C16.6033 56.9585 16.6033 56.9585 16.6033 56.9585C16.6033 56.9585 16.6033 56.9585 16.6033 56.9585C16.6033 56.9585 16.6033 56.9585 16.6033 56.9585C16.6033 56.9585 16.6033 56.9585 16.6033 56.9585C16.6033 56.9585 16.6033 56.9585 16.6033 56.9585C16.6033 56.9585 16.6033 56.9585 16.6033 56.9585C16.6033 56.9585 16.6033 56.9585 16.6033 56.9585C16.6033 56.9585 16.6033 56.9585 16.6033 56.9585C16.6033 56.9585 16.6033 56.9585 16.6033 56.9585C16.6033 56.9585 16.6033 56.9585 16.6033 56.9585C16.6033 56.9585 16.6033 56.9585 16.6033 56.9585C16.6033 56.9585 16.6033 56.9585 16.6033 56.9585C16.6033 56.9585 16.6033 56.9585 16.6033 56.9585C16.6033 56.9585 16.6033 56.9585 16.6033 56.9585C16.6033 56.9585 16.6033 56.9585 16.6033 56.9585C16.6033 56.9585 16.6033 56.9585 16.6033 56.9585C16.6033 56.9585 16.6033 56.9585 16.6033 56.9585C16.6033 56.9585 16.6033 56.9585 16.6033 56.9585C16.6033 56.9585 16.6033 56.9585 16.6033 56.9585C16.6033 56.9585 16.6033 56.9585 16.6033 56.9585C16.6033 56.9585 16.6033 56.9585 16.6033 56.9585C16.6033 56.9585 16.6033 56.9585 16.6033 56.9585C16.6033 56.9585 16.6033 56.9585 16.6033 56.9585C16.6033 56.9585 16.6033 56.9585 16.6033 56.9585C16.6033 56.9585 16.6033 56.9585 16.6033 56.9585C16.6033 56.9585 16.6033 56.9585 16.6033 56.9585C16.6033 56.9585 16.6033 56.9585 16.6033 56.9585C16.6033 56.9585 16.6033 56.9585 16.6033 56.9585C16.6033 56.9585 16.6033 56.9585 16.6033 56.9585C16.6033 56.9585 16.6033 56.9585 16.6033 56.9585C16.6033 56.9585 16.6033 56.9585 16.6033 56.9585C16.6033 56.9585 16.6033 56.9585 16.6033 56.9585C16.6033 56.9585 16.6033 56.9585 16.6033 56.9585C16.6033 56.9585 16.6033 56.9585 16.6033 56.9585C16.6033 56.9585 16.6033 56.9585 16.6033 56.9585C16.6033 56.9585 16.6033 56.9585 16.6033 56.9585C16.6033 56.9585 16.6033 56.9585 16.6033 56.9585C16.6033 56.9585 16.6033 56.9585 16.6033 56.9585C16.6033 56.9585 16.6033 56.9585 16.6033 56.9585C16.6033 56.9585 16.6033 56.9585 16.6033 56.9585C16.6033 56.9585 16.6033 56.9585 16.6033 56.9585C16.6033 56.9585 16.6033 56.9585 16.6033 56.9585C16.6033 56.9585 16.6033 56.9585 16.6033 56.9585C16.6033 56.9585 16.6033 56.9585 16.6033 56.9585C16.6033 56.9585 16.6033 56.9585 16.6033 56.9585C16.6033 56.9585 16.6033 56.9585 16.6033 56.9585C16.6033 56.9585 16.6033 56.9585 16.6033 56.9585C16.6033 56.9585 16.6033 56.9585 16.6033 56.9585C16.6033 56.9585 16.6033 56.9585 16.6033 56.9585C16.6033 56.9585 16.6033 56.9585 16.6033 56.9585C16.6033 56.9585 16.6033 56.9585 16.6033 56.9585C16.6033 56.9585 16.6033 56.9585 16.6033 56.9585C16.6033 56.9585 16.6033 56.9585 16.6033 56.9585C16.6033 56.9585 16.6033 56.9585 16.6033 56.9585C16.6033 56.9585 16.6033 56.9585 16.6033 56.9585C16.6033 56.9585 16.6033 56.9585 16.6033 56.9585C16.6033 56.9585 16.6033 56.9585 16.6033 56.9585C16.6033 56.9585 16.6033 56.9585 16.6033 56.9585C16.6033 56.9585 16.6033 56.9585 16.6033 56.9585C16.6033 56.9585 16.6033 56.9585 16.6033 56.9585C16.6033 56.9585 16.6033 56.9585 16.6033 56.9585C16.6033 56.9585 16.6033 56.9585 16.6033 56.9585C16.6033 56.9585 16.6033 56.9585 16.6033 56.9585C16.6033 56.9585 16.6033 56.9585 16.6033 56.9585C16.6033 56.9585 16.6033 56.9585 16.6033 56.9585C16.6033 56.9585 16.6033 56.9585 16.6033 56.9585C16.6033 56.9585 16.6033 56.9585 16.6033 56.9585C16.6033 56.9585 16.6033 56.9585 16.6033 56.9585C16.6033 56.9585 16.6033 56.9585 16.6033 56.9585C16.6033 56.9585 16.6033 56.9585 16.6033 56.9585C16.6033 56.9585 16.6033 56.9585 16.6033 56.9585C16.6033 56.9585 16.6033 56.9585 16.6033 56.9585C16.6033 56.9585 16.6033 56.9585 16.6033 56.9585C16.6033 56.9585 16.6033 56.9585 16.6033 56.9585C16.6033 56.9585 16.6033 56.9585 16.6033 56.9585C16.6033 56.9585 16.6033 56.9585 16.6033 56.9585C16.6033 56.9585 16.6033 56.9585 16.6033 56.9585C16.6033 56.9585 16.6033 56.9585 16.6033 56.9585C16.6033 56.9585 16.6033 56.9585 16.6033 56.9585C16.6033 56.9585 16.6033 56.9585 16.6033 56.9585C16.6033 56.9585 16.6033 56.9585 16.6033 56.9585C16.6033 56.9585 16.6033 56.9585 16.6033 56.9585C16.6033 56.9585 16.6033 56.9585 16.6033 56.9585C16.6033 56.9585 16.6033 56.9585 16.6033 56.9585C16.6033 56.9585 16.6033 56.9585 16.6033 56.9585C16.6033 56.9585 16.6033 56.9585 16.6033 56.9585C16.6033 56.9585 16.6033 56.9585 16.6033 56.9585C16.6033 56.9585 16.6033 56.9585 16.6033 56.9585C16.6033 56.9585 16.6033 56.9585 16.6033 56.9585C16.6033 56.9585 16.6033 56.9585 16.6033 56.9585C16.6033 56.9585 16.6033 56.9585 16.6033 56.9585C16.6033 56.9585 16.6033 56.9585 16.6033 56.9585C16.6033 56.9585 16.6033 56.9585 16.6033 56.9585C16.6033 56.9585 16.6033 56.9585 16.6033 56.9585C16.6033 56.9585 16.6033 56.9585 16.6033 56.9585C16.6033 56.9585 16.6033 56.9585 16.6033 56.9585C16.6033 56.9585 16.6033 56.9585 16.6033 56.9585C16.6033 56.9585 16.6033 56.9585 16.6033 56.9585C16.6033 56.9585 16.6033 56.9585 16.6033 56.9585C16.6033 56.9585 16.6033 56.9585 16.6033 56.9585C16.6033 56.9585 16.6033 56.9585 16.6033 56.9585C16.6033 56.9585 16.6033 56.9585 16.6033 56.9585C16.6033 56.9585 16.6033 56.9585 16.6033 56.9585C16.6033 56.9585 16.6033 56.9585 16.6033 56.9585C16.6033 56.9585 16.6033 56.9585 16.6033 56.9585C16.6033 56.9585 16.6033 56.9585 16.6033 56.9585C16.6033 56.9585 16.6033 56.9585 16.6033 56.9585C16.6033 56.9585 16.6033 56.9585 16.6033 56.9585C16.6033 56.9585 16.6033 56.9585 16.6033 56.9585C16.6033 56.9585 16.6033 56.9585 16.6033 56.9585C16.6033 56.9585 16.6033 56.9585 16.6033 56.9585C16.6033 56.9585 16.6033 56.9585 16.6033 56.9585C16.6033 56.9585 16.6033 56.9585 16.6033 56.9585C16.6033 56.9585 16.6033 56.9585 16.6033 56.9585C16.6033 56.9585 16.6033 56.9585 16.6033 56.9585C16.6033 56.9585 16.6033 56.9585 16.6033 56.9585C16.6033 56.9585 16.6033 56.9585 16.6033 56.9585C16.6033 56.9585 16.6033 56.9585 16.6033 56.9585C16.6033 56.9585 16.6033 56.9585 16.6033 56.9585C16.6033 56.9585 16.6033 56.9585 16.6033 56.9585C16.6033 56.9585 16.6033 56.9585 16.6033 56.9585C16.6033 56.9585 16.6033 56.9585 16.6033 56.9585C16.6033 56.9585 16.6033 56.9585 16.6033 56.9585C16.6033 56.9585 16.6033 56.9585 16.6033 56.9585C16.6033 56.9585 16.6033 56.9585 16.6033 56.9585C16.6033 56.9585 16.6033 56.9585 16.6033 56.9585C16.6033 56.9585 16.6033 56.9585 16.6033 56.9585C16.6033 56.9585 16.6033 56.9585 16.6033 56.9585C16.6033 56.9585 16.6033 56.9585 16.6033 56.9585C16.6033 56.9585 16.6033 56.9585 16.6033 56.9585C16.6033 56.9585 16.6033 56.9585 16.6033 56.9585C16.6033 56.9585 16.6033 56.9585 16.6033 56.9585C16.6033 56.9585 16.6033 56.9585 16.6033 56.9585C16.6033 56.9585 16.6033 56.9585 16.6033 56.9585C16.6033 56.9585 16.6033 56.9585 16.6033 56.9585C16.6033 56.9585 16.6033 56.9585 16.6033 56.9585C16.6033 56.9585 16.6033 56.9585 16.6033 56.9585C16.6033 56.9585 16.6033 56.9585 16.6033 56.9585C16.6033 56.9585 16.6033 56.9585 16.6033 56.9585C16.6033 56.9585 16.6033 56.9585 16.6033 56.9585C16.6033 56.9585 16.6033 56.9585 16.6033 56.9585C16.6033 56.9585 16.6033 56.9585 16.6033 56.9585C16.6033 56.9585 16.6033 56.9585 16.6033 56.9585C16.6033 56.9585 16.6033 56.9585 16.6033 56.9585C16.6033 56.9585 16.6033 56.9585 16.6033 56.9585C16.6033 56.9585 16.6033 56.9585 16.6033 56.9585C16.6033 56.9585 16.6033 56.9585 16.6033 56.9585C16.6033 56.9585 16.6033 56.9585 16.6033 56.9585C16.6033 56.9585 16.6033 56.9585 16.6033 56.9585C16.6033 56.9585 16.6033 56.9585 16.6033 56.9585C16.6033 56.9585 16.6033 56.9585 16.6033 56.9585C16.6033 56.9585 16.6033 56.9585 16.6033 56.9585C16.6033 56.9585 16.6033 56.9585 16.6033 56.9585C16.6033 56.9585 16.6033 56.9585 16.6033 56.9585C16.6033 56.9585 16.6033 56.9585 16.6033 56.9585C16.6033 56.9585 16.6033 56.9585 16.6033 56.9585C16.6033 56.9585 16.6033 56.9585 16.6033 56.9585C16.6033 56.9585 16.6033 56.9585 16.6033 56.9585C16.6033 56.9585 16.6033 56.9585 16.6033 56.9585C16.6033 56.9585 16.6033 56.9585 16.6033 56.9585C16.6033 56.9585 16.6033 56.9585 16.6033 56.9585C16.6033 56.9585 16.6033 56.9585 16.6033 56.9585C16.6033 56.9585 16.6033 56.9585 16.6033 56.9585C16.6033 56.9585 16.6033 56.9585 16.6033 56.9585C16.6033 56.9585 16.6033 56.9585 16.6033 56.9585C16.6033 56.9585 16.6033 56.9585 16.6033 56.9585C16.6033 56.9585 16.6033 56.9585 16.6033 56.9585C16.6033 56.9585 16.6033 56.9585 16.6033 56.9585C16.6033 56.9585 16.6033 56.9585 16.6033 56.9585C16.6033 56.9585 16.6033 56.9585 16.6033 56.9585C16.6033 56.9585 16.6033 56.9585 16.6033 56.9585C16.6033 56.9585 16.6033 56.9585 16.6033 56.9585C16.6033 56.9585 16.6033 56.9585 16.6033 56.9585C16.6033 56.9585 16.6033 56.9585 16.6033 56.9585C16.6033 56.9585 16.6033 56.9585 16.6033 56.9585C16.6033 56.9585 16.6033 56.9585 16.6033 56.9585C16.6033 56.9585 16.6033 56.9585 16.6033 56.9585C16.6033 56.9585 16.6033 56.9585 16.6033 56.9585C16.6033 56.9585 16.6033 56.9585 16.6033 56.9585C16.6033 56.9585 16.6033 56.9585 16.6033 56.9585C16.6033 56.9585 16.6033 56.9585 16.6033 56.9585C16.6033 56.9585 16.6033 56.9585 16.6033 56.9585C16.6033 56.9585 16.6033 56.9585 16.6033 56.9585C16.6033 56.9585 16.6033 56.9585 16.6033 56.9585C16.6033 56.9585 16.6033 56.9585 16.6033 56.9585C16.6033 56.9585 16.6033 56.9585 16.6033 56.9585C16.6033 56.9585 16.6033 56.9585 16.6033 56.9585C16.6033 56.9585 16.6033 56.9585 16.6033 56.9585C16.6033 56.9585 16.6033 56.9585 16.6033 56.9585C16.6033 56.9585 16.6033 56.9585 16.6033 56.9585C16.6033 56.9585 16.6033 56.9585 16.6033 56.9585C16.6033 56.9585 16.6033 56.9585 16.6033 56.9585C16.6033 56.9585 16.6033 56.9585 16.6033 56.9585C16.6033 56.9585 16.6033 56.9585 16.6033 56.9585C16.6033 56.9585 16.6033 56.9585 16.6033 56.9585C16.6033 56.9585 16.6033 56.9585 16.6033 56.9585C16.6033 56.9585 16.6033 56.9585 16.6033 56.9585C16.6033 56.9585 16.6033 56.9585 16.6033 56.9585C16.6033 56.9585 16.6033 56.9585 16.6033 56.9585C16.6033 56.9585 16.6033 56.9585 16.6033 56.9585C16.6033 56.9585 16.6033 56.9585 16.6033 56.9585C16.6033 56.9585 16.6033 56.9585 16.6033 56.9585C16.6033 56.9585 16.6033 56.9585 16.6033 56.9585C16.6033 56.9585 16.6033 56.9585 16.6033 56.9585C16.6033 56.9585 16.6033 56.9585 16.6033 56.9585C16.6033 56.9585 16.6033 56.9585 16.6033 56.9585C16.6033 56.9585 16.6033 56.9585 16.6033 56.9585C16.6033 56.9585 16.6033 56.9585 16.6033 56.9585C16.6033 56.9585 16.6033 56.9585 16.6033 56.9585C16.6033 56.9585 16.6033 56.9585 16.6033 56.9585C16.6033 56.9585 16.6033 56.9585 16.6033 56.9585C16.6033 56.9585 16.6033 56.9585 16.6033 56.9585C16.6033 56.9585 16.6033 56.9585 16.6033 56.9585C16.6033 56.9585 16.6033 56.9585 16.6033 56.9585C16.6033 56.9585 16.6033 56.9585 16.6033 56.9585C16.6033 56.9585 16.6033 56.9585 16.6033 56.9585C16.6033 56.9585 16.6033 56.9585 16.6033 56.9585C16.6033 56.9585 16.6033 56.9585 16.6033 56.9585C16.6033 56.9585 16.6033 56.9585 16.6033 56.9585C16.6033 56.9585 16.6033 56.9585 16.6033 56.9585C16.6033 56.9585 16.6033 56.9585 16.6033 56.9585C16.6033 56.9585 16.6033 56.9585 16.6033 56.9585C16.6033 56.9585 16.6033 56.9585 16.6033 56.9585C16.6033 56.9585 16.6033 56.9585 16.6033 56.9585C16.6033 56.9585 16.6033 56.9585 16.6033 56.9585C16.6033 56.9585 16.6033 56.9585 16.6033 56.9585C16.6033 56.9585 16.6033 56.9585 16.6033 56.9585C16.6033 56.9585 16.6033 56.9585 16.6033 56.9585C16.6033 56.9585 16.6033 56.9585 16.6033 56.9585C16.6033 56.9585 16.6033 56.9585 16.6033 56.9585C16.6033 56.9585 16.6033 56.9585 16.6033 56.9585C16.6033 56.9585 16.6033 56.9585 16.6033 56.9585C16.6033 56.9585 16.6033 56.9585 16.6033 56.9585C16.6033 56.9585 16.6033 56.9585 16.6033 56.9585C16.6033 56.9585 16.6033 56.9585 16.6033 56.9585C16.6033 56.9585 16.6033 56.9585 16.6033 56.9585C16.6033 56.9585 16.6033 56.9585 16.6033 56.9585C16.6033 56.9585 16.6033 56.9585 16.6033 56.9585C16.6033 56.9585 16.6033 56.9585 16.6033 56.9585C16.6033 56.9585 16.6033 56.9585 16.6033 56.9585C16.6033 56.9585 16.6033 56.9585 16.6033 56.9585C16.6033 56.9585 16.6033 56.9585 16.6033 56.9585C16.6033 56.9585 16.6033 56.9585 16.6033 56.9585C16.6033 56.9585 16.6033 56.9585 16.6033 56.9585C16.6033 56.9585 16.6033 56.9585 16.6033 56.9585C16.6033 56.9585 16.6033 56.9585 16.6033 56.9585C16.6033 56.9585 16.6033 56.9585 16.6033 56.9585C16.6033 56.9585 16.6033 56.9585 16.6033 56.9585C16.6033 56.9585 16.6033 56.9585 16.6033 56.9585C16.6033 56.9585 16.6033 56.9585 16.6033 56.9585C16.6033 56.9585 16.6033 56.9585 16.6033 56.9585C16.6033 56.9585 16.6033 56.9585 16.6033 56.9585C16.6033 56.9585 16.6033 56.9585 16.6033 56.9585C16.6033 56.9585 16.6033 56.9585 16.6033 56.9585C16.6033 56.9585 16.6033 56.9585 16.6033 56.9585C16.6033 56.9585 16.6033 56.9585 16.6033 56.9585C16.6033 56.9585 16.6033 56.9585 16.6033 56.9585C16.6033 56.9585 16.6033 56.9585 16.6033 56.9585C16.6033 56.9585 16.6033 56.9585 16.6033 56.9585C16.6033 56.9585 16.6033 56.9585 16.6033 56.9585C16.6033 56.9585 16.6033 56.9585 16.6033 56.9585C16.6033 56.9585 16.6033 56.9585 16.6033 56.9585C16.6033 56.9585 16.6033 56.9585 16.6033 56.9585C16.6033 56.9585 16.6033 56.9585 16.6033 56.9585C16.6033 56.9585 16.6033 56.9585 16.6033 56.9585C16.6033 56.9585 16.6033 56.9585 16.6033 56.9585C16.6033 56.9585 16.6033 56.9585 16.6033 56.9585C16.6033 56.9585 16.6033 56.9585 16.6033 56.9585C16.6033 56.9585 16.6033 56.9585 16.6033 56.9585C16.6033 56.9585 16.6033 56.9585 16.6033 56.9585C16.6033 56.9585 16.6033 56.9585 16.6033 56.9585C16.6033 56.9585 16.6033 56.9585 16.6033 56.9585C16.6033 56.9585 16.6033 56.9585 16.6033 56.9585C16.6033 56.9585 16.6033 56.9585 16.6033 56.9585C16.6033 56.9585 16.6033 56.9585 16.6033 56.9585C16.6033 56.9585 16.6033 56.9585 16.6033 56.9585C16.6033 56.9585 13.7378 54.093 13.7378 54.093C13.7378 54.093 13.7378 54.093 13.7378 54.093C13.7378 54.093 13.7378 54.093 13.7378 54.093C13.7378 54.093 13.7378 54.093 13.7378 54.093C13.7378 54.093 13.7378 54.093 13.7378 54.093C13.7378 54.093 13.7378 54.093 13.7378 54.093C13.7378 54.093 13.7378 54.093 13.7378 54.093C13.7378 54.093 13.7378 54.093 13.7378 54.093C13.7378 54.093 13.7378 54.093 13.7378 54.093C13.7378 54.093 13.7378 54.093 13.7378 54.093C13.7378 54.093 13.7378 54.093 13.7378 54.093C13.7378 54.093 13.7378 54.093 13.7378 54.093C13.7378 54.093 13.7378 54.093 13.7378 54.093C13.7378 54.093 13.7378 54.093 13.7378 54.093C13.7378 54.093 13.7378 54.093 13.7378 54.093C13.7378 54.093 13.7378 54.093 13.7378 54.093C13.7378 54.093 13.7378 54.093 13.7378 54.093C13.7378 54.093 13.7378 54.093 13.7378 54.093C13.7378 54.093 13.7378 54.093 13.7378 54.093C13.7378 54.093 13.7378 54.093 13.7378 54.093C13.7378 54.093 13.7378 54.093 13.7378 54.093C13.7378 54.093 13.7378 54.093 13.7378 54.093C13.7378 54.093 13.7378 54.093 13.7378 54.093C13.7378 54.093 13.7378 54.093 13.7378 54.093C13.7378 54.093 13.7378 54.093 13.7378 54.093C13.7378 54.093 13.7378 54.093 13.7378 54.093C13.7378 54.093 13.7378 54.093 13.7378 54.093C13.7378 54.093 13.7378 54.093 13.7378 54.093C13.7378 54.093 13.7378 54.093 13.7378 54.093C13.7378 54.093 13.7378 54.093 13.7378 54.093C13.7378 54.093 13.7378 54.093 13.7378 54.093C13.7378 54.093 13.7378 54.093 13.7378 54.093C13.7378 54.093 13.7378 54.093 13.7378 54.093C13.7378 54.093 13.7378 54.093 13.7378 54.093C13.7378 54.093 13.7378 54.093 13.7378 54.093C13.7378 54.093 13.7378 54.093 13.7378 54.093C13.7378 54.093 13.7378 54.093 13.7378 54.093C13.7378 54.093 13.7378 54.093 13.7378 54.093C13.7378 54.093 13.7378 54.093 13.7378 54.093C13.7378 54.093 13.7378 54.093 13.7378 54.093C13.7378 54.093 13.7378 54.093 13.7378 54.093C13.7378 54.093 13.7378 54.093 13.7378 54.093C13.7378 54.093 13.7378 54.093 13.7378 54.093C13.7378 54.093 13.7378 54.093 13.7378 54.093C13.7378 54.093 13.7378 54.093 13.7378 54.093C13.7378 54.093 13.7378 54.093 13.7378 54.093C13.7378 54.093 13.7378 54.093 13.7378 54.093C13.7378 54.093 13.7378 54.093 13.7378 54.093C13.7378 54.093 13.7378 54.093 13.7378 54.093C13.7378 54.093 13.7378 54.093 13.7378 54.093C13.7378 54.093 13.7378 54.093 13.7378 54.093C13.7378 54.093 13.7378 54.093 13.7378 54.093C13.7378 54.093 13.7378 54.093 13.7378 54.093C13.7378 54.093 13.7378 54.093 13.7378 54.093C13.7378 54.093 13.7378 54.093 13.7378 54.093C13.7378 54.093 13.7378 54.093 13.7378 54.093C13.7378 54.093 13.7378 54.093 13.7378 54.093C13.7378 54.093 13.7378 54.093 13.7378 54.093C13.7378 54.093 13.7378 54.093 13.7378 54.093C13.7378 54.093 13.7378 54.093 13.7378 54.093C13.7378 54.093 13.7378 54.093 13.7378 54.093C13.7378 54.093 13.7378 54.093 13.7378 54.093C13.7378 54.093 13.7378 54.093 13.7378 54.093C13.7378 54.093 13.7378 54.093 13.7378 54.093C13.7378 54.093 13.7378 54.093 13.7378 54.093C13.7378 54.093 13.7378 54.093 13.7378 54.093C13.7378 54.093 13.7378 54.093 13.7378 54.093C13.7378 54.093 13.7378 54.093 13.7378 54.093C13.7378 54.093 13.7378 54.093 13.7378 54.093C13.7378 54.093 13.7378 54.093 13.7378 54.093C13.7378 54.093 13.7378 54.093 13.7378 54.093C13.7378 54.093 13.7378 54.093 13.7378 54.093C13.7378 54.093 13.7378 54.093 13.7378 54.093C13.7378 54.093 13.7378 54.093 13.7378 54.093C13.7378 54.093 13.7378 54.093 13.7378 54.093C13.7378 54.093 13.7378 54.093 13.7378 54.093C13.7378 54.093 13.7378 54.093 13.7378 54.093C13.7378 54.093 13.7378 54.093 13.7378 54.093C13.7378 54.093 13.7378 54.093 13.7378 54.093C13.7378 54.093 13.7378 54.093 13.7378 54.093C13.7378 54.093 13.7378 54.093 13.7378 54.093C13.7378 54.093 13.7378 54.093 13.7378 54.093C13.7378 54.093 13.7378 54.093 13.7378 54.093C13.7378 54.093 13.7378 54.093 13.7378 54.093C13.7378 54.093 13.7378 54.093 13.7378 54.093C13.7378 54.093 13.7378 54.093 13.7378 54.093C13.7378 54.093 13.7378 54.093 13.7378 54.093C13.7378 54.093 13.7378 54.093 13.7378 54.093C13.7378 54.093 13.7378 54.093 13.7378 54.093C13.7378 54.093 13.7378 54.093 13.7378 54.093C13.7378 54.093 13.7378 54.093 13.7378 54.093C13.7378 54.093 13.7378 54.093 13.7378 54.093C13.7378 54.093 13.7378 54.093 13.7378 54.093C13.7378 54.093 13.7378 54.093 13.7378 54.093C13.7378 54.093 13.7378 54.093 13.7378 54.093C13.7378 54.093 13.7378 54.093 13.7378 54.093C13.7378 54.093 13.7378 54.093 13.7378 54.093C13.7378 54.093 13.7378 54.093 13.7378 54.093C13.7378 54.093 13.7378 54.093 13.7378 54.093C13.7378 54.093 13.7378 54.093 13.7378 54.093C13.7378 54.093 13.7378 54.093 13.7378 54.093C13.7378 54.093 13.7378 54.093 13.7378 54.093C13.7378 54.093 13.7378 54.093 13.7378 54.093C13.7378 54.093 13.7378 54.093 13.7378 54.093C13.7378 54.093 13.7378 54.093 13.7378 54.093C13.7378 54.093 13.7378 54.093 13.7378 54.093C13.7378 54.093 13.7378 54.093 13.7378 54.093C13.7378 54.093 13.7378 54.093 13.7378 54.093C13.7378 54.093 13.7378 54.093 13.7378 54.093L16.6033 56.9585ZM56.9308 16.631C56.6775 16.8844 56.3339 17.0267 55.9757 17.0267L55.9757 12.9741C55.2591 12.9741 54.5719 13.2588 54.0653 13.7655L56.9308 16.631Z" fill="black"/>
</svg>
