<svg width="57" height="109" viewBox="0 0 57 109" fill="none" xmlns="http://www.w3.org/2000/svg">
<path d="M56.3933 4.43279C57.1846 3.64148 57.1846 2.35852 56.3933 1.56721C55.602 0.775907 54.319 0.775907 53.5277 1.56721L56.3933 4.43279ZM36.1306 94.9393C36.9219 94.148 36.9219 92.8651 36.1306 92.0738L23.2356 79.1787C22.4443 78.3874 21.1613 78.3874 20.37 79.1787C19.5787 79.97 19.5787 81.253 20.37 82.0443L31.8323 93.5066L20.37 104.969C19.5787 105.76 19.5787 107.043 20.37 107.834C21.1613 108.626 22.4443 108.626 23.2356 107.834L36.1306 94.9393ZM0.844801 54.2501C0.0534947 55.0414 0.0534947 56.3244 0.844801 57.1157C1.63611 57.907 2.91907 57.907 3.71037 57.1157L0.844801 54.2501ZM2.27759 91.4803C1.15851 91.4803 0.251321 92.3875 0.251321 93.5066C0.251321 94.6256 1.15851 95.5328 2.27759 95.5328V91.4803ZM53.5277 1.56721L30.9011 24.1939L33.7667 27.0594L56.3933 4.43279L53.5277 1.56721ZM30.9011 24.1939L19.5878 35.5072L22.4533 38.3727L33.7667 27.0594L30.9011 24.1939ZM19.5878 35.5072L0.844801 54.2501L3.71037 57.1157L22.4533 38.3727L19.5878 35.5072ZM18.5721 95.5328H34.6979V91.4803H18.5721V95.5328ZM2.27759 95.5328H18.5721V91.4803H2.27759V95.5328Z" fill="black"/>
</svg>
