<svg width="57" height="108" viewBox="0 0 57 108" fill="none" xmlns="http://www.w3.org/2000/svg">
<path d="M56.3933 104.477C57.1846 105.269 57.1846 106.552 56.3933 107.343C55.602 108.134 54.319 108.134 53.5277 107.343L56.3933 104.477ZM36.1306 13.9708C36.9219 14.7621 36.9219 16.0451 36.1306 16.8364L23.2356 29.7315C22.4443 30.5228 21.1613 30.5228 20.37 29.7315C19.5787 28.9402 19.5787 27.6572 20.37 26.8659L31.8323 15.4036L20.37 3.94131C19.5787 3.14999 19.5787 1.86703 20.37 1.07573C21.1613 0.284424 22.4443 0.284424 23.2356 1.07573L36.1306 13.9708ZM0.844801 54.66C0.0534947 53.8687 0.0534947 52.5858 0.844801 51.7944C1.63611 51.0031 2.91907 51.0031 3.71037 51.7944L0.844801 54.66ZM2.27759 17.4299C1.15851 17.4299 0.251321 16.5227 0.251321 15.4036C0.251321 14.2845 1.15851 13.3773 2.27759 13.3773V17.4299ZM53.5277 107.343L30.9011 84.7163L33.7667 81.8507L56.3933 104.477L53.5277 107.343ZM30.9011 84.7163L19.5878 73.403L22.4533 70.5374L33.7667 81.8507L30.9011 84.7163ZM19.5878 73.403L0.844801 54.66L3.71037 51.7944L22.4533 70.5374L19.5878 73.403ZM18.5721 13.3773H34.6979V17.4299H18.5721V13.3773ZM2.27759 13.3773H18.5721V17.4299H2.27759V13.3773Z" fill="black"/>
</svg>
