<svg width="67" height="105" viewBox="0 0 67 105" fill="none" xmlns="http://www.w3.org/2000/svg">
<path d="M66.386 13.5154C67.1773 14.3067 67.1773 15.5896 66.386 16.3809L53.4909 29.276C52.6996 30.0673 51.4166 30.0673 50.6253 29.276C49.834 28.4847 49.834 27.2018 50.6253 26.4104L62.0876 14.9482L50.6253 3.48586C49.834 2.69455 49.834 1.41159 50.6253 0.620282C51.4166 -0.171024 52.6996 -0.171024 53.4909 0.620282L66.386 13.5154ZM0.112649 78C0.112649 76.8809 1.01984 75.9737 2.13892 75.9737C3.25799 75.9737 4.16518 76.8809 4.16518 78H0.112649ZM37 16.9744C35.8809 16.9744 34.9737 16.0672 34.9737 14.9482C34.9737 13.8291 35.8809 12.9219 37 12.9219V16.9744ZM0.112649 104.779V78H4.16518V104.779H0.112649ZM37 12.9219H64.9532V16.9744H37V12.9219Z" fill="black"/>
</svg>
