<svg width="325" height="81" viewBox="0 0 325 81" fill="none" xmlns="http://www.w3.org/2000/svg">
<circle cx="39.8688" cy="39.8668" r="21.039" stroke="#FF0000" stroke-width="3.45846"/>
<circle cx="39.8685" cy="39.8675" r="29.6851" stroke="#FF0000" stroke-width="3.45846"/>
<circle cx="39.8684" cy="39.8684" r="38.1391" stroke="#FF0000" stroke-width="3.45846"/>
<path d="M39.9648 78.2007V69.1699" stroke="#FF0000" stroke-width="4.70886"/>
<path d="M39.9648 10.1831V1.15234" stroke="#FF0000" stroke-width="4.70886"/>
<path d="M123.426 41.7148C123.979 41.7148 124.447 41.9254 124.827 42.3467C125.208 42.7329 125.398 43.2244 125.398 43.8213V47.5076C125.398 48.1045 125.208 48.596 124.827 48.9822C124.447 49.4035 123.979 49.6141 123.426 49.6141H112.316V76.9459C112.316 78.3502 111.676 79.0524 110.395 79.0524H106.709C106.155 79.0524 105.688 78.8593 105.307 78.4731C104.927 78.0518 104.736 77.5427 104.736 76.9459V44.9272C104.736 44.0495 105.013 43.2946 105.567 42.6627C106.155 42.0307 106.865 41.7148 107.695 41.7148H123.426Z" fill="white"/>
<path d="M135.033 79.0524H131.71C131.156 79.0524 130.672 78.8417 130.256 78.4204C129.841 77.964 129.634 77.4374 129.634 76.8405C129.634 76.5948 129.668 76.3666 129.737 76.1559L139.705 43.4526C140.051 42.2589 140.83 41.6621 142.041 41.6621H145.623C146.869 41.6621 147.665 42.2589 148.011 43.4526L157.927 76.1559C157.996 76.3666 158.031 76.5948 158.031 76.8405C158.031 77.4374 157.823 77.964 157.408 78.4204C156.993 78.8417 156.508 79.0524 155.954 79.0524H152.736C151.49 79.0524 150.694 78.4204 150.348 77.1565L143.858 54.8277L137.369 77.1565C137.023 78.4204 136.244 79.0524 135.033 79.0524Z" fill="white"/>
<path d="M189.475 41.9781C190.029 41.9781 190.479 42.1712 190.825 42.5574C191.206 42.9436 191.396 43.4351 191.396 44.0319V67.5193H191.344C191.067 70.6791 189.77 73.4351 187.451 75.7873C184.786 78.4204 181.636 79.737 178.002 79.737C175.545 79.737 173.191 79.1226 170.942 77.8938C168.727 76.7001 166.944 75.05 165.595 72.9435C164.799 71.6094 165.006 70.486 166.218 69.5731L168.813 67.6246C169.125 67.3438 169.557 67.2033 170.111 67.2033C170.907 67.2033 171.548 67.5018 172.032 68.0986C173.693 70.5562 175.683 71.785 178.002 71.785C179.525 71.785 180.806 71.2232 181.844 70.0998C182.778 69.0816 183.28 67.888 183.349 66.5187V65.7288C181.827 66.3959 180.131 66.7294 178.262 66.7294C174.316 66.7294 171.098 65.2022 168.606 62.1478C166.252 59.304 165.075 55.8458 165.075 51.7733V44.0319C165.075 43.4351 165.266 42.9436 165.647 42.5574C165.993 42.1712 166.443 41.9781 166.996 41.9781H170.682C171.236 41.9781 171.703 42.1712 172.084 42.5574C172.465 42.9787 172.655 43.4702 172.655 44.0319V52.0366C172.655 54.108 173.157 55.7405 174.161 56.9342C175.199 58.163 176.566 58.7774 178.262 58.7774C180.062 58.7774 181.463 58.0928 182.467 56.7235C183.367 55.4948 183.817 53.9324 183.817 52.0366V44.0319C183.817 43.5755 183.938 43.1718 184.18 42.8207L184.388 42.5574C184.768 42.1712 185.236 41.9781 185.789 41.9781H189.475Z" fill="white"/>
<path d="M226.729 44.0846C226.729 44.6112 226.608 45.0149 226.366 45.2958L217.281 60.6732L226.158 75.682C226.4 76.0331 226.521 76.4544 226.521 76.9459C226.521 77.5076 226.314 77.9991 225.899 78.4204C225.518 78.8417 225.033 79.0524 224.445 79.0524H220.396C219.6 79.0524 218.994 78.7013 218.579 77.9991L212.816 68.2566L207.053 77.9991C206.638 78.7013 206.032 79.0524 205.236 79.0524H201.239C200.651 79.0524 200.149 78.8417 199.733 78.4204C199.318 78.0342 199.11 77.5427 199.11 76.9459C199.11 76.4544 199.232 76.0331 199.474 75.682L208.351 60.6732L199.266 45.2958C199.024 45.0149 198.903 44.6112 198.903 44.0846C198.903 43.4877 199.11 42.9787 199.526 42.5574C199.907 42.1361 200.391 41.9254 200.979 41.9254H205.029C205.825 41.9254 206.43 42.2765 206.846 42.9787L212.816 53.0898L218.838 42.9787C219.184 42.2765 219.773 41.9254 220.603 41.9254H224.653C225.241 41.9254 225.725 42.1361 226.106 42.5574C226.521 42.9787 226.729 43.4877 226.729 44.0846Z" fill="white"/>
<path d="M262.775 76.1559C262.809 76.2964 262.827 76.5421 262.827 76.8932C262.827 77.4901 262.636 77.9991 262.255 78.4204C261.84 78.8417 261.338 79.0524 260.75 79.0524H257.479C256.233 79.0524 255.437 78.4204 255.091 77.1565L253.274 70.8897H243.981L242.113 77.1565C241.766 78.4204 240.988 79.0524 239.776 79.0524H236.558C235.969 79.0524 235.467 78.8417 235.052 78.4204C234.671 77.9991 234.481 77.4901 234.481 76.8932C234.481 76.5421 234.498 76.2964 234.533 76.1559L244.501 43.5053C244.847 42.2765 245.643 41.6621 246.889 41.6621H250.419C251.665 41.6621 252.461 42.2765 252.807 43.5053L262.775 76.1559ZM248.602 54.775L246.162 63.2537H251.042L248.602 54.775Z" fill="white"/>
<path d="M294.571 54.2484C294.571 57.5837 293.446 60.4626 291.196 62.885C288.912 65.3777 286.143 66.6241 282.89 66.6241H279.308V76.9459C279.308 78.3502 278.668 79.0524 277.387 79.0524H273.701C272.421 79.0524 271.78 78.3502 271.78 76.9459V45.0852C271.78 44.2426 272.057 43.5053 272.611 42.8733C273.199 42.2414 273.909 41.9254 274.739 41.9254H282.89C286.109 41.9254 288.877 43.1718 291.196 45.6644C293.446 48.0869 294.571 50.9482 294.571 54.2484ZM286.991 54.2484C286.991 52.9845 286.559 51.9137 285.693 51.036C284.897 50.1232 283.876 49.6668 282.63 49.6668H279.308V58.8827H282.63C283.807 58.8827 284.828 58.4263 285.693 57.5135C286.559 56.6007 286.991 55.5123 286.991 54.2484Z" fill="white"/>
<path d="M308.964 62.0951V71.311H312.286C313.532 71.311 314.553 70.8546 315.349 69.9418C316.215 69.0641 316.647 67.9933 316.647 66.7294C316.647 65.4655 316.215 64.3771 315.349 63.4643C314.484 62.5515 313.463 62.0951 312.286 62.0951H308.964ZM304.395 79.0524C303.565 79.0524 302.855 78.7364 302.267 78.1044C301.713 77.4725 301.436 76.7352 301.436 75.8926V44.0319C301.436 42.6276 302.076 41.9254 303.357 41.9254H307.043C308.323 41.9254 308.964 42.6276 308.964 44.0319V54.3537H312.546C315.799 54.3537 318.568 55.6001 320.852 58.0928C323.102 60.5152 324.227 63.3941 324.227 66.7294C324.227 70.0296 323.102 72.8909 320.852 75.3133C318.533 77.806 315.765 79.0524 312.546 79.0524H304.395Z" fill="white"/>
<path d="M123.426 41.7148C123.979 41.7148 124.447 41.9254 124.827 42.3467C125.208 42.7329 125.398 43.2244 125.398 43.8213V47.5076C125.398 48.1045 125.208 48.596 124.827 48.9822C124.447 49.4035 123.979 49.6141 123.426 49.6141H112.316V76.9459C112.316 78.3502 111.676 79.0524 110.395 79.0524H106.709C106.155 79.0524 105.688 78.8593 105.307 78.4731C104.927 78.0518 104.736 77.5427 104.736 76.9459V44.9272C104.736 44.0495 105.013 43.2946 105.567 42.6627C106.155 42.0307 106.865 41.7148 107.695 41.7148H123.426Z" stroke="white" stroke-width="0.746566"/>
<path d="M135.033 79.0524H131.71C131.156 79.0524 130.672 78.8417 130.256 78.4204C129.841 77.964 129.634 77.4374 129.634 76.8405C129.634 76.5948 129.668 76.3666 129.737 76.1559L139.705 43.4526C140.051 42.2589 140.83 41.6621 142.041 41.6621H145.623C146.869 41.6621 147.665 42.2589 148.011 43.4526L157.927 76.1559C157.996 76.3666 158.031 76.5948 158.031 76.8405C158.031 77.4374 157.823 77.964 157.408 78.4204C156.993 78.8417 156.508 79.0524 155.954 79.0524H152.736C151.49 79.0524 150.694 78.4204 150.348 77.1565L143.858 54.8277L137.369 77.1565C137.023 78.4204 136.244 79.0524 135.033 79.0524Z" stroke="white" stroke-width="0.746566"/>
<path d="M189.475 41.9781C190.029 41.9781 190.479 42.1712 190.825 42.5574C191.206 42.9436 191.396 43.4351 191.396 44.0319V67.5193H191.344C191.067 70.6791 189.77 73.4351 187.451 75.7873C184.786 78.4204 181.636 79.737 178.002 79.737C175.545 79.737 173.191 79.1226 170.942 77.8938C168.727 76.7001 166.944 75.05 165.595 72.9435C164.799 71.6094 165.006 70.486 166.218 69.5731L168.813 67.6246C169.125 67.3438 169.557 67.2033 170.111 67.2033C170.907 67.2033 171.548 67.5018 172.032 68.0986C173.693 70.5562 175.683 71.785 178.002 71.785C179.525 71.785 180.806 71.2232 181.844 70.0998C182.778 69.0816 183.28 67.888 183.349 66.5187V65.7288C181.827 66.3959 180.131 66.7294 178.262 66.7294C174.316 66.7294 171.098 65.2022 168.606 62.1478C166.252 59.304 165.075 55.8458 165.075 51.7733V44.0319C165.075 43.4351 165.266 42.9436 165.647 42.5574C165.993 42.1712 166.443 41.9781 166.996 41.9781H170.682C171.236 41.9781 171.703 42.1712 172.084 42.5574C172.465 42.9787 172.655 43.4702 172.655 44.0319V52.0366C172.655 54.108 173.157 55.7405 174.161 56.9342C175.199 58.163 176.566 58.7774 178.262 58.7774C180.062 58.7774 181.463 58.0928 182.467 56.7235C183.367 55.4948 183.817 53.9324 183.817 52.0366V44.0319C183.817 43.5755 183.938 43.1718 184.18 42.8207L184.388 42.5574C184.768 42.1712 185.236 41.9781 185.789 41.9781H189.475Z" stroke="white" stroke-width="0.746566"/>
<path d="M226.729 44.0846C226.729 44.6112 226.608 45.0149 226.366 45.2958L217.281 60.6732L226.158 75.682C226.4 76.0331 226.521 76.4544 226.521 76.9459C226.521 77.5076 226.314 77.9991 225.899 78.4204C225.518 78.8417 225.033 79.0524 224.445 79.0524H220.396C219.6 79.0524 218.994 78.7013 218.579 77.9991L212.816 68.2566L207.053 77.9991C206.638 78.7013 206.032 79.0524 205.236 79.0524H201.239C200.651 79.0524 200.149 78.8417 199.733 78.4204C199.318 78.0342 199.11 77.5427 199.11 76.9459C199.11 76.4544 199.232 76.0331 199.474 75.682L208.351 60.6732L199.266 45.2958C199.024 45.0149 198.903 44.6112 198.903 44.0846C198.903 43.4877 199.11 42.9787 199.526 42.5574C199.907 42.1361 200.391 41.9254 200.979 41.9254H205.029C205.825 41.9254 206.43 42.2765 206.846 42.9787L212.816 53.0898L218.838 42.9787C219.184 42.2765 219.773 41.9254 220.603 41.9254H224.653C225.241 41.9254 225.725 42.1361 226.106 42.5574C226.521 42.9787 226.729 43.4877 226.729 44.0846Z" stroke="white" stroke-width="0.746566"/>
<path d="M262.775 76.1559C262.809 76.2964 262.827 76.5421 262.827 76.8932C262.827 77.4901 262.636 77.9991 262.255 78.4204C261.84 78.8417 261.338 79.0524 260.75 79.0524H257.479C256.233 79.0524 255.437 78.4204 255.091 77.1565L253.274 70.8897H243.981L242.113 77.1565C241.766 78.4204 240.988 79.0524 239.776 79.0524H236.558C235.969 79.0524 235.467 78.8417 235.052 78.4204C234.671 77.9991 234.481 77.4901 234.481 76.8932C234.481 76.5421 234.498 76.2964 234.533 76.1559L244.501 43.5053C244.847 42.2765 245.643 41.6621 246.889 41.6621H250.419C251.665 41.6621 252.461 42.2765 252.807 43.5053L262.775 76.1559ZM248.602 54.775L246.162 63.2537H251.042L248.602 54.775Z" stroke="white" stroke-width="0.746566"/>
<path d="M294.571 54.2484C294.571 57.5837 293.446 60.4626 291.196 62.885C288.912 65.3777 286.143 66.6241 282.89 66.6241H279.308V76.9459C279.308 78.3502 278.668 79.0524 277.387 79.0524H273.701C272.421 79.0524 271.78 78.3502 271.78 76.9459V45.0852C271.78 44.2426 272.057 43.5053 272.611 42.8733C273.199 42.2414 273.909 41.9254 274.739 41.9254H282.89C286.109 41.9254 288.877 43.1718 291.196 45.6644C293.446 48.0869 294.571 50.9482 294.571 54.2484ZM286.991 54.2484C286.991 52.9845 286.559 51.9137 285.693 51.036C284.897 50.1232 283.876 49.6668 282.63 49.6668H279.308V58.8827H282.63C283.807 58.8827 284.828 58.4263 285.693 57.5135C286.559 56.6007 286.991 55.5123 286.991 54.2484Z" stroke="white" stroke-width="0.746566"/>
<path d="M308.964 62.0951V71.311H312.286C313.532 71.311 314.553 70.8546 315.349 69.9418C316.215 69.0641 316.647 67.9933 316.647 66.7294C316.647 65.4655 316.215 64.3771 315.349 63.4643C314.484 62.5515 313.463 62.0951 312.286 62.0951H308.964ZM304.395 79.0524C303.565 79.0524 302.855 78.7364 302.267 78.1044C301.713 77.4725 301.436 76.7352 301.436 75.8926V44.0319C301.436 42.6276 302.076 41.9254 303.357 41.9254H307.043C308.323 41.9254 308.964 42.6276 308.964 44.0319V54.3537H312.546C315.799 54.3537 318.568 55.6001 320.852 58.0928C323.102 60.5152 324.227 63.3941 324.227 66.7294C324.227 70.0296 323.102 72.8909 320.852 75.3133C318.533 77.806 315.765 79.0524 312.546 79.0524H304.395Z" stroke="white" stroke-width="0.746566"/>
</svg>
