<svg width="394" height="261" viewBox="0 0 394 261" fill="none" xmlns="http://www.w3.org/2000/svg">
<path d="M163.464 67C241.064 71.8 362.298 27.5 385.464 5C399.824 6.57737 368.994 58.8454 344.784 99.8891L343.942 101.316C326.425 131.015 308.896 168.648 274.425 167.88C245.375 167.232 208.011 162.483 173.465 197.5C99.9648 272 20.0473 284 4.96435 187C-5.22056 121.5 66.4644 61 163.464 67Z" stroke="#FF0000" stroke-width="8"/>
<path d="M71.9083 191.134L70.5666 193.902C69.0389 193.039 67.878 192.165 67.0839 191.281C66.2898 190.397 65.8033 189.437 65.6246 188.403C65.4429 187.36 65.5219 186.204 65.8615 184.936C66.1981 183.66 66.7966 182.134 67.6571 180.359C68.6566 178.297 69.6374 176.721 70.5995 175.632C71.5557 174.54 72.6782 173.836 73.9672 173.52C75.2502 173.201 76.809 173.284 78.6436 173.768C80.481 174.246 82.8028 175.166 85.609 176.526C88.3508 177.855 90.4858 179.1 92.0142 180.26C93.5368 181.418 94.5734 182.6 95.124 183.808C95.6687 185.012 95.8117 186.337 95.5529 187.781C95.291 189.217 94.6688 190.949 93.6863 192.976C92.4255 195.577 91.1882 197.488 89.9744 198.708C88.7548 199.925 87.4088 200.568 85.9362 200.636C84.4607 200.695 82.686 200.221 80.6121 199.216L81.9751 196.404C83.5335 197.159 84.8233 197.506 85.8446 197.444C86.86 197.379 87.7727 196.899 88.5828 196.004C89.3929 195.109 90.2651 193.698 91.1994 191.77C91.9774 190.165 92.428 188.802 92.5511 187.683C92.6711 186.554 92.4828 185.562 91.986 184.707C91.4862 183.842 90.6871 183.035 89.5889 182.286C88.4907 181.537 86.9925 180.702 85.0944 179.782L78.7605 192.849L76.2472 191.631L82.5811 178.564C80.1498 177.385 78.1749 176.735 76.6564 176.614C75.132 176.49 73.89 176.836 72.9304 177.652C71.9737 178.461 71.0566 179.771 70.1791 181.581C69.2846 183.427 68.7464 184.881 68.5644 185.943C68.3852 186.999 68.5507 187.911 69.061 188.679C69.5741 189.442 70.5232 190.26 71.9083 191.134Z" fill="white"/>
<path d="M103.424 175.081L83.1757 159.28L77.4382 166.633L75.1671 164.86L88.5283 147.738L90.7687 149.486L85.1402 156.763L105.389 172.563L103.424 175.081Z" fill="white"/>
<path d="M121.763 140.893C123.472 143.4 124.699 145.534 125.443 147.296C126.193 149.054 126.519 150.613 126.421 151.972C126.319 153.325 125.816 154.575 124.911 155.72C124.005 156.865 122.649 158.054 120.841 159.287C119.007 160.537 117.402 161.384 116.025 161.826C114.644 162.263 113.309 162.287 112.02 161.898C110.735 161.505 109.4 160.627 108.013 159.263C106.626 157.9 105.075 155.96 103.358 153.442C101.602 150.866 100.347 148.696 99.5932 146.932C98.8453 145.165 98.5285 143.62 98.6429 142.297C98.759 140.965 99.2772 139.748 100.198 138.648C101.114 137.542 102.498 136.359 104.348 135.097C106.198 133.835 107.806 132.98 109.17 132.53C110.53 132.076 111.844 132.038 113.112 132.419C114.382 132.79 115.704 133.654 117.078 135.01C118.452 136.367 120.013 138.328 121.763 140.893ZM119.116 142.698C117.22 139.917 115.664 137.964 114.448 136.839C113.228 135.709 111.986 135.193 110.721 135.291C109.456 135.389 107.858 136.096 105.927 137.413C103.99 138.733 102.745 139.969 102.19 141.119C101.631 142.264 101.651 143.61 102.248 145.157C102.851 146.7 104.101 148.862 105.997 151.643C107.427 153.741 108.639 155.345 109.633 156.456C110.627 157.567 111.589 158.326 112.52 158.731C113.456 159.133 114.448 159.19 115.496 158.901C116.549 158.608 117.805 157.965 119.262 156.971C120.713 155.966 121.768 155.034 122.427 154.175C123.082 153.31 123.394 152.381 123.362 151.386C123.335 150.388 122.987 149.23 122.318 147.914C121.654 146.593 120.587 144.855 119.116 142.698Z" fill="white"/>
<path d="M151.24 122.693L151.226 122.657C150.577 121.372 150.019 120.423 149.551 119.807C149.087 119.184 148.542 118.749 147.916 118.502C147.288 118.249 146.481 118.208 145.493 118.38C144.51 118.543 143.219 118.933 141.622 119.549C140.042 120.159 138.829 120.795 137.982 121.457C137.133 122.112 136.578 122.927 136.318 123.899C136.059 124.872 136.083 126.111 136.393 127.618C136.706 129.116 137.315 131.037 138.219 133.382C139.124 135.726 139.964 137.559 140.739 138.879C141.517 140.19 142.329 141.119 143.175 141.665C144.021 142.211 144.981 142.447 146.055 142.375C147.127 142.296 148.453 141.952 150.032 141.342C151.666 140.712 152.931 140.112 153.828 139.542C154.723 138.967 155.351 138.334 155.712 137.643C156.077 136.944 156.207 136.14 156.1 135.232C155.992 134.318 155.67 133.168 155.136 131.783L158.006 130.676C158.697 132.468 159.103 134.007 159.223 135.293C159.346 136.572 159.157 137.709 158.655 138.705C158.151 139.695 157.283 140.61 156.05 141.448C154.815 142.281 153.141 143.105 151.027 143.92C148.908 144.739 147.118 145.22 145.66 145.364C144.205 145.5 142.892 145.246 141.723 144.601C140.553 143.957 139.451 142.83 138.418 141.219C137.39 139.606 136.328 137.378 135.231 134.535C134.125 131.668 133.412 129.298 133.094 127.425C132.774 125.546 132.823 123.974 133.242 122.71C133.665 121.437 134.466 120.357 135.645 119.469C136.821 118.576 138.473 117.719 140.598 116.898C143.368 115.829 145.577 115.315 147.226 115.356C148.878 115.388 150.196 115.902 151.181 116.897C152.168 117.883 153.145 119.446 154.11 121.586L151.24 122.693Z" fill="white"/>
<path d="M166.464 135.164L168.271 134.629C169.183 134.359 169.804 133.981 170.136 133.496C170.473 133.009 170.676 132.225 170.743 131.146L154.053 111.972L157.386 110.985L171.411 127.486L173.528 106.203L176.796 105.234L173.938 131.239C173.606 134.426 172.329 136.35 170.107 137.008L167.26 137.851L166.464 135.164Z" fill="white"/>
<path d="M188.425 105.186L189.641 113.624L199.104 112.26C201.192 111.959 202.893 112.033 204.207 112.481C205.527 112.922 206.541 113.73 207.25 114.904C207.957 116.071 208.455 117.651 208.742 119.642C209.028 121.627 208.995 123.269 208.643 124.57C208.297 125.863 207.551 126.898 206.407 127.674C205.268 128.444 203.652 128.979 201.557 129.281L189.011 131.09L184.936 102.817L203.9 100.084L204.305 102.896L188.425 105.186ZM190.046 116.437L191.689 127.832L200.997 126.491C202.479 126.277 203.579 125.941 204.295 125.482C205.012 125.024 205.454 124.372 205.621 123.525C205.795 122.678 205.774 121.507 205.559 120.012C205.34 118.491 205.025 117.356 204.614 116.606C204.203 115.856 203.551 115.371 202.658 115.151C201.77 114.924 200.482 114.932 198.794 115.176L190.046 116.437Z" fill="white"/>
<path d="M217.774 99.3528L218.047 111.83L220.849 111.769L232.215 99.0852L236.452 98.9924L223.72 113.073L238.639 127.467L234.236 127.563L220.873 114.65L218.11 114.71L218.399 127.91L215.246 127.979L214.62 99.4219L217.774 99.3528Z" fill="white"/>
<path d="M263.382 112.097C263.565 115.125 263.525 117.587 263.262 119.481C263.005 121.375 262.486 122.88 261.706 123.997C260.926 125.108 259.853 125.923 258.489 126.443C257.125 126.962 255.351 127.289 253.167 127.421C250.951 127.555 249.139 127.46 247.73 127.134C246.32 126.802 245.162 126.139 244.253 125.144C243.352 124.148 242.655 122.71 242.162 120.829C241.67 118.948 241.331 116.486 241.147 113.445C240.958 110.332 240.992 107.826 241.249 105.925C241.512 104.024 242.031 102.535 242.807 101.457C243.589 100.373 244.657 99.594 246.012 99.1205C247.365 98.6406 249.16 98.3328 251.395 98.1973C253.631 98.0617 255.449 98.1504 256.851 98.4632C258.252 98.7696 259.4 99.411 260.294 100.387C261.194 101.357 261.887 102.776 262.372 104.644C262.857 106.513 263.194 108.997 263.382 112.097ZM260.184 112.291C259.981 108.931 259.645 106.457 259.176 104.867C258.708 103.272 257.905 102.192 256.769 101.628C255.632 101.065 253.898 100.853 251.565 100.995C249.225 101.137 247.523 101.56 246.456 102.263C245.39 102.961 244.717 104.127 244.438 105.761C244.165 107.395 244.131 109.892 244.334 113.252C244.488 115.786 244.707 117.785 244.992 119.248C245.276 120.712 245.714 121.856 246.305 122.681C246.903 123.506 247.726 124.062 248.774 124.351C249.829 124.639 251.237 124.73 252.998 124.623C254.758 124.504 256.141 124.244 257.147 123.843C258.153 123.437 258.897 122.798 259.379 121.927C259.868 121.056 260.162 119.884 260.262 118.411C260.368 116.937 260.342 114.897 260.184 112.291Z" fill="white"/>
</svg>
