<svg width="1020" height="888" viewBox="0 0 1020 888" fill="none" xmlns="http://www.w3.org/2000/svg">
<line x1="296" y1="753" x2="480" y2="753" stroke="#FF0000" stroke-width="30"/>
<line x1="465" y1="738" x2="465" y2="180" stroke="#FF0000" stroke-width="30"/>
<line x1="465" y1="768" x2="465" y2="888" stroke="#FF0000" stroke-width="30"/>
<line x1="480" y1="873" x2="750" y2="873" stroke="#FF0000" stroke-width="30"/>
<line x1="735" y1="861" x2="735" y2="738" stroke="#FF0000" stroke-width="30"/>
<line x1="720" y1="753" x2="570" y2="753" stroke="#FF0000" stroke-width="30"/>
<line x1="585" y1="738" x2="585" y2="558" stroke="#FF0000" stroke-width="30"/>
<line x1="585" y1="438" x2="585" y2="330" stroke="#FF0000" stroke-width="30"/>
<line x1="600" y1="423" x2="1020" y2="423" stroke="#FF0000" stroke-width="30"/>
<line x1="885" y1="420" x2="885" y2="2" stroke="#FF0000" stroke-width="30"/>
<line x1="600" y1="573" x2="900" y2="573" stroke="#FF0000" stroke-width="30"/>
<line x1="885" y1="558" x2="885" y2="768" stroke="#FF0000" stroke-width="30"/>
<line x1="300" y1="873" x2="140" y2="873" stroke="#FF0000" stroke-width="30"/>
<line x1="285" y1="888" x2="285" y2="20" stroke="#FF0000" stroke-width="30"/>
<line x1="135" y1="888" x2="135" y2="180" stroke="#FF0000" stroke-width="30"/>
<line x1="119" y1="15" x2="900" y2="15.0001" stroke="#FF0000" stroke-width="30"/>
<line x1="900" y1="303" x2="750" y2="303" stroke="#FF0000" stroke-width="30"/>
<line x1="735" y1="318" x2="735" y2="180" stroke="#FF0000" stroke-width="30"/>
<line x1="615" y1="195" x2="465" y2="195" stroke="#FF0000" stroke-width="30"/>
<line x1="450" y1="422" x2="300" y2="422" stroke="#FF0000" stroke-width="30"/>
<line x1="150" y1="195" x2="1.31134e-06" y2="195" stroke="#FF0000" stroke-width="30"/>
<line x1="15" y1="2" x2="15" y2="210" stroke="#FF0000" stroke-width="30"/>
<line x1="870" y1="753" x2="1020" y2="753" stroke="#FF0000" stroke-width="30"/>
<line x1="1005" y1="739" x2="1005" y2="438" stroke="#FF0000" stroke-width="30"/>
</svg>
